G04 #@! TF.GenerationSoftware,KiCad,Pcbnew,6.0.2+dfsg-1*
G04 #@! TF.CreationDate,2023-05-23T14:21:46-03:00*
G04 #@! TF.ProjectId,pedal,70656461-6c2e-46b6-9963-61645f706362,rev?*
G04 #@! TF.SameCoordinates,Original*
G04 #@! TF.FileFunction,Legend,Top*
G04 #@! TF.FilePolarity,Positive*
%FSLAX46Y46*%
G04 Gerber Fmt 4.6, Leading zero omitted, Abs format (unit mm)*
G04 Created by KiCad (PCBNEW 6.0.2+dfsg-1) date 2023-05-23 14:21:46*
%MOMM*%
%LPD*%
G01*
G04 APERTURE LIST*
%ADD10C,0.160000*%
%ADD11C,0.300000*%
%ADD12C,0.150000*%
%ADD13C,0.120000*%
G04 APERTURE END LIST*
D10*
X79469333Y-104860666D02*
X79136000Y-104860666D01*
X79136000Y-104160666D01*
X79702666Y-104860666D02*
X79702666Y-104160666D01*
X79936000Y-104160666D02*
X80336000Y-104160666D01*
X80136000Y-104860666D02*
X80136000Y-104160666D01*
X80469333Y-104160666D02*
X80869333Y-104160666D01*
X80669333Y-104860666D02*
X80669333Y-104160666D01*
X81436000Y-104860666D02*
X81102666Y-104860666D01*
X81102666Y-104160666D01*
X81669333Y-104494000D02*
X81902666Y-104494000D01*
X82002666Y-104860666D02*
X81669333Y-104860666D01*
X81669333Y-104160666D01*
X82002666Y-104160666D01*
X82802666Y-104660666D02*
X83136000Y-104660666D01*
X82736000Y-104860666D02*
X82969333Y-104160666D01*
X83202666Y-104860666D01*
X83436000Y-104860666D02*
X83436000Y-104160666D01*
X83836000Y-104860666D01*
X83836000Y-104160666D01*
X84536000Y-104194000D02*
X84469333Y-104160666D01*
X84369333Y-104160666D01*
X84269333Y-104194000D01*
X84202666Y-104260666D01*
X84169333Y-104327333D01*
X84136000Y-104460666D01*
X84136000Y-104560666D01*
X84169333Y-104694000D01*
X84202666Y-104760666D01*
X84269333Y-104827333D01*
X84369333Y-104860666D01*
X84436000Y-104860666D01*
X84536000Y-104827333D01*
X84569333Y-104794000D01*
X84569333Y-104560666D01*
X84436000Y-104560666D01*
X84869333Y-104494000D02*
X85102666Y-104494000D01*
X85202666Y-104860666D02*
X84869333Y-104860666D01*
X84869333Y-104160666D01*
X85202666Y-104160666D01*
X85836000Y-104860666D02*
X85502666Y-104860666D01*
X85502666Y-104160666D01*
X87002666Y-104794000D02*
X86969333Y-104827333D01*
X86869333Y-104860666D01*
X86802666Y-104860666D01*
X86702666Y-104827333D01*
X86636000Y-104760666D01*
X86602666Y-104694000D01*
X86569333Y-104560666D01*
X86569333Y-104460666D01*
X86602666Y-104327333D01*
X86636000Y-104260666D01*
X86702666Y-104194000D01*
X86802666Y-104160666D01*
X86869333Y-104160666D01*
X86969333Y-104194000D01*
X87002666Y-104227333D01*
X87302666Y-104860666D02*
X87302666Y-104160666D01*
X87302666Y-104494000D02*
X87702666Y-104494000D01*
X87702666Y-104860666D02*
X87702666Y-104160666D01*
X88169333Y-104160666D02*
X88302666Y-104160666D01*
X88369333Y-104194000D01*
X88436000Y-104260666D01*
X88469333Y-104394000D01*
X88469333Y-104627333D01*
X88436000Y-104760666D01*
X88369333Y-104827333D01*
X88302666Y-104860666D01*
X88169333Y-104860666D01*
X88102666Y-104827333D01*
X88036000Y-104760666D01*
X88002666Y-104627333D01*
X88002666Y-104394000D01*
X88036000Y-104260666D01*
X88102666Y-104194000D01*
X88169333Y-104160666D01*
X89169333Y-104860666D02*
X88936000Y-104527333D01*
X88769333Y-104860666D02*
X88769333Y-104160666D01*
X89036000Y-104160666D01*
X89102666Y-104194000D01*
X89136000Y-104227333D01*
X89169333Y-104294000D01*
X89169333Y-104394000D01*
X89136000Y-104460666D01*
X89102666Y-104494000D01*
X89036000Y-104527333D01*
X88769333Y-104527333D01*
X89469333Y-104160666D02*
X89469333Y-104727333D01*
X89502666Y-104794000D01*
X89536000Y-104827333D01*
X89602666Y-104860666D01*
X89736000Y-104860666D01*
X89802666Y-104827333D01*
X89836000Y-104794000D01*
X89869333Y-104727333D01*
X89869333Y-104160666D01*
X90169333Y-104827333D02*
X90269333Y-104860666D01*
X90436000Y-104860666D01*
X90502666Y-104827333D01*
X90536000Y-104794000D01*
X90569333Y-104727333D01*
X90569333Y-104660666D01*
X90536000Y-104594000D01*
X90502666Y-104560666D01*
X90436000Y-104527333D01*
X90302666Y-104494000D01*
X90236000Y-104460666D01*
X90202666Y-104427333D01*
X90169333Y-104360666D01*
X90169333Y-104294000D01*
X90202666Y-104227333D01*
X90236000Y-104194000D01*
X90302666Y-104160666D01*
X90469333Y-104160666D01*
X90569333Y-104194000D01*
D11*
X80902571Y-102616857D02*
X81302571Y-103816857D01*
X81702571Y-102616857D01*
X82102571Y-103816857D02*
X82102571Y-102616857D01*
X82502571Y-102616857D02*
X83188285Y-102616857D01*
X82845428Y-103816857D02*
X82845428Y-102616857D01*
X83816857Y-102616857D02*
X84045428Y-102616857D01*
X84159714Y-102674000D01*
X84274000Y-102788285D01*
X84331142Y-103016857D01*
X84331142Y-103416857D01*
X84274000Y-103645428D01*
X84159714Y-103759714D01*
X84045428Y-103816857D01*
X83816857Y-103816857D01*
X83702571Y-103759714D01*
X83588285Y-103645428D01*
X83531142Y-103416857D01*
X83531142Y-103016857D01*
X83588285Y-102788285D01*
X83702571Y-102674000D01*
X83816857Y-102616857D01*
X85531142Y-103816857D02*
X85131142Y-103245428D01*
X84845428Y-103816857D02*
X84845428Y-102616857D01*
X85302571Y-102616857D01*
X85416857Y-102674000D01*
X85474000Y-102731142D01*
X85531142Y-102845428D01*
X85531142Y-103016857D01*
X85474000Y-103131142D01*
X85416857Y-103188285D01*
X85302571Y-103245428D01*
X84845428Y-103245428D01*
X86045428Y-103816857D02*
X86045428Y-102616857D01*
X86559714Y-103474000D02*
X87131142Y-103474000D01*
X86445428Y-103816857D02*
X86845428Y-102616857D01*
X87245428Y-103816857D01*
D12*
X116089980Y-98766380D02*
X116089980Y-99480666D01*
X116042361Y-99623523D01*
X115947123Y-99718761D01*
X115804266Y-99766380D01*
X115709028Y-99766380D01*
X116518552Y-98861619D02*
X116566171Y-98814000D01*
X116661409Y-98766380D01*
X116899504Y-98766380D01*
X116994742Y-98814000D01*
X117042361Y-98861619D01*
X117089980Y-98956857D01*
X117089980Y-99052095D01*
X117042361Y-99194952D01*
X116470933Y-99766380D01*
X117089980Y-99766380D01*
X103322380Y-76334857D02*
X102846190Y-76668190D01*
X103322380Y-76906285D02*
X102322380Y-76906285D01*
X102322380Y-76525333D01*
X102370000Y-76430095D01*
X102417619Y-76382476D01*
X102512857Y-76334857D01*
X102655714Y-76334857D01*
X102750952Y-76382476D01*
X102798571Y-76430095D01*
X102846190Y-76525333D01*
X102846190Y-76906285D01*
X103322380Y-75382476D02*
X103322380Y-75953904D01*
X103322380Y-75668190D02*
X102322380Y-75668190D01*
X102465238Y-75763428D01*
X102560476Y-75858666D01*
X102608095Y-75953904D01*
X102322380Y-74525333D02*
X102322380Y-74715809D01*
X102370000Y-74811047D01*
X102417619Y-74858666D01*
X102560476Y-74953904D01*
X102750952Y-75001523D01*
X103131904Y-75001523D01*
X103227142Y-74953904D01*
X103274761Y-74906285D01*
X103322380Y-74811047D01*
X103322380Y-74620571D01*
X103274761Y-74525333D01*
X103227142Y-74477714D01*
X103131904Y-74430095D01*
X102893809Y-74430095D01*
X102798571Y-74477714D01*
X102750952Y-74525333D01*
X102703333Y-74620571D01*
X102703333Y-74811047D01*
X102750952Y-74906285D01*
X102798571Y-74953904D01*
X102893809Y-75001523D01*
X105100380Y-97194666D02*
X104624190Y-97528000D01*
X105100380Y-97766095D02*
X104100380Y-97766095D01*
X104100380Y-97385142D01*
X104148000Y-97289904D01*
X104195619Y-97242285D01*
X104290857Y-97194666D01*
X104433714Y-97194666D01*
X104528952Y-97242285D01*
X104576571Y-97289904D01*
X104624190Y-97385142D01*
X104624190Y-97766095D01*
X104100380Y-96861333D02*
X104100380Y-96242285D01*
X104481333Y-96575619D01*
X104481333Y-96432761D01*
X104528952Y-96337523D01*
X104576571Y-96289904D01*
X104671809Y-96242285D01*
X104909904Y-96242285D01*
X105005142Y-96289904D01*
X105052761Y-96337523D01*
X105100380Y-96432761D01*
X105100380Y-96718476D01*
X105052761Y-96813714D01*
X105005142Y-96861333D01*
X112609333Y-91384380D02*
X112276000Y-90908190D01*
X112037904Y-91384380D02*
X112037904Y-90384380D01*
X112418857Y-90384380D01*
X112514095Y-90432000D01*
X112561714Y-90479619D01*
X112609333Y-90574857D01*
X112609333Y-90717714D01*
X112561714Y-90812952D01*
X112514095Y-90860571D01*
X112418857Y-90908190D01*
X112037904Y-90908190D01*
X113085523Y-91384380D02*
X113276000Y-91384380D01*
X113371238Y-91336761D01*
X113418857Y-91289142D01*
X113514095Y-91146285D01*
X113561714Y-90955809D01*
X113561714Y-90574857D01*
X113514095Y-90479619D01*
X113466476Y-90432000D01*
X113371238Y-90384380D01*
X113180761Y-90384380D01*
X113085523Y-90432000D01*
X113037904Y-90479619D01*
X112990285Y-90574857D01*
X112990285Y-90812952D01*
X113037904Y-90908190D01*
X113085523Y-90955809D01*
X113180761Y-91003428D01*
X113371238Y-91003428D01*
X113466476Y-90955809D01*
X113514095Y-90908190D01*
X113561714Y-90812952D01*
X98992380Y-120386857D02*
X98516190Y-120720190D01*
X98992380Y-120958285D02*
X97992380Y-120958285D01*
X97992380Y-120577333D01*
X98040000Y-120482095D01*
X98087619Y-120434476D01*
X98182857Y-120386857D01*
X98325714Y-120386857D01*
X98420952Y-120434476D01*
X98468571Y-120482095D01*
X98516190Y-120577333D01*
X98516190Y-120958285D01*
X98992380Y-119434476D02*
X98992380Y-120005904D01*
X98992380Y-119720190D02*
X97992380Y-119720190D01*
X98135238Y-119815428D01*
X98230476Y-119910666D01*
X98278095Y-120005904D01*
X97992380Y-118815428D02*
X97992380Y-118720190D01*
X98040000Y-118624952D01*
X98087619Y-118577333D01*
X98182857Y-118529714D01*
X98373333Y-118482095D01*
X98611428Y-118482095D01*
X98801904Y-118529714D01*
X98897142Y-118577333D01*
X98944761Y-118624952D01*
X98992380Y-118720190D01*
X98992380Y-118815428D01*
X98944761Y-118910666D01*
X98897142Y-118958285D01*
X98801904Y-119005904D01*
X98611428Y-119053523D01*
X98373333Y-119053523D01*
X98182857Y-119005904D01*
X98087619Y-118958285D01*
X98040000Y-118910666D01*
X97992380Y-118815428D01*
X85288380Y-123610666D02*
X84812190Y-123944000D01*
X85288380Y-124182095D02*
X84288380Y-124182095D01*
X84288380Y-123801142D01*
X84336000Y-123705904D01*
X84383619Y-123658285D01*
X84478857Y-123610666D01*
X84621714Y-123610666D01*
X84716952Y-123658285D01*
X84764571Y-123705904D01*
X84812190Y-123801142D01*
X84812190Y-124182095D01*
X85288380Y-122658285D02*
X85288380Y-123229714D01*
X85288380Y-122944000D02*
X84288380Y-122944000D01*
X84431238Y-123039238D01*
X84526476Y-123134476D01*
X84574095Y-123229714D01*
X99004380Y-94010857D02*
X98528190Y-94344190D01*
X99004380Y-94582285D02*
X98004380Y-94582285D01*
X98004380Y-94201333D01*
X98052000Y-94106095D01*
X98099619Y-94058476D01*
X98194857Y-94010857D01*
X98337714Y-94010857D01*
X98432952Y-94058476D01*
X98480571Y-94106095D01*
X98528190Y-94201333D01*
X98528190Y-94582285D01*
X99004380Y-93058476D02*
X99004380Y-93629904D01*
X99004380Y-93344190D02*
X98004380Y-93344190D01*
X98147238Y-93439428D01*
X98242476Y-93534666D01*
X98290095Y-93629904D01*
X99004380Y-92582285D02*
X99004380Y-92391809D01*
X98956761Y-92296571D01*
X98909142Y-92248952D01*
X98766285Y-92153714D01*
X98575809Y-92106095D01*
X98194857Y-92106095D01*
X98099619Y-92153714D01*
X98052000Y-92201333D01*
X98004380Y-92296571D01*
X98004380Y-92487047D01*
X98052000Y-92582285D01*
X98099619Y-92629904D01*
X98194857Y-92677523D01*
X98432952Y-92677523D01*
X98528190Y-92629904D01*
X98575809Y-92582285D01*
X98623428Y-92487047D01*
X98623428Y-92296571D01*
X98575809Y-92201333D01*
X98528190Y-92153714D01*
X98432952Y-92106095D01*
X81280095Y-76160380D02*
X81280095Y-76969904D01*
X81327714Y-77065142D01*
X81375333Y-77112761D01*
X81470571Y-77160380D01*
X81661047Y-77160380D01*
X81756285Y-77112761D01*
X81803904Y-77065142D01*
X81851523Y-76969904D01*
X81851523Y-76160380D01*
X82851523Y-77160380D02*
X82280095Y-77160380D01*
X82565809Y-77160380D02*
X82565809Y-76160380D01*
X82470571Y-76303238D01*
X82375333Y-76398476D01*
X82280095Y-76446095D01*
X72334380Y-93606857D02*
X71858190Y-93940190D01*
X72334380Y-94178285D02*
X71334380Y-94178285D01*
X71334380Y-93797333D01*
X71382000Y-93702095D01*
X71429619Y-93654476D01*
X71524857Y-93606857D01*
X71667714Y-93606857D01*
X71762952Y-93654476D01*
X71810571Y-93702095D01*
X71858190Y-93797333D01*
X71858190Y-94178285D01*
X71429619Y-93225904D02*
X71382000Y-93178285D01*
X71334380Y-93083047D01*
X71334380Y-92844952D01*
X71382000Y-92749714D01*
X71429619Y-92702095D01*
X71524857Y-92654476D01*
X71620095Y-92654476D01*
X71762952Y-92702095D01*
X72334380Y-93273523D01*
X72334380Y-92654476D01*
X71334380Y-92035428D02*
X71334380Y-91940190D01*
X71382000Y-91844952D01*
X71429619Y-91797333D01*
X71524857Y-91749714D01*
X71715333Y-91702095D01*
X71953428Y-91702095D01*
X72143904Y-91749714D01*
X72239142Y-91797333D01*
X72286761Y-91844952D01*
X72334380Y-91940190D01*
X72334380Y-92035428D01*
X72286761Y-92130666D01*
X72239142Y-92178285D01*
X72143904Y-92225904D01*
X71953428Y-92273523D01*
X71715333Y-92273523D01*
X71524857Y-92225904D01*
X71429619Y-92178285D01*
X71382000Y-92130666D01*
X71334380Y-92035428D01*
X101211142Y-78589142D02*
X101163523Y-78636761D01*
X101020666Y-78684380D01*
X100925428Y-78684380D01*
X100782571Y-78636761D01*
X100687333Y-78541523D01*
X100639714Y-78446285D01*
X100592095Y-78255809D01*
X100592095Y-78112952D01*
X100639714Y-77922476D01*
X100687333Y-77827238D01*
X100782571Y-77732000D01*
X100925428Y-77684380D01*
X101020666Y-77684380D01*
X101163523Y-77732000D01*
X101211142Y-77779619D01*
X102163523Y-78684380D02*
X101592095Y-78684380D01*
X101877809Y-78684380D02*
X101877809Y-77684380D01*
X101782571Y-77827238D01*
X101687333Y-77922476D01*
X101592095Y-77970095D01*
X102544476Y-77779619D02*
X102592095Y-77732000D01*
X102687333Y-77684380D01*
X102925428Y-77684380D01*
X103020666Y-77732000D01*
X103068285Y-77779619D01*
X103115904Y-77874857D01*
X103115904Y-77970095D01*
X103068285Y-78112952D01*
X102496857Y-78684380D01*
X103115904Y-78684380D01*
X101684885Y-106191142D02*
X101637266Y-106238761D01*
X101494409Y-106286380D01*
X101399171Y-106286380D01*
X101256313Y-106238761D01*
X101161075Y-106143523D01*
X101113456Y-106048285D01*
X101065837Y-105857809D01*
X101065837Y-105714952D01*
X101113456Y-105524476D01*
X101161075Y-105429238D01*
X101256313Y-105334000D01*
X101399171Y-105286380D01*
X101494409Y-105286380D01*
X101637266Y-105334000D01*
X101684885Y-105381619D01*
X102637266Y-106286380D02*
X102065837Y-106286380D01*
X102351552Y-106286380D02*
X102351552Y-105286380D01*
X102256313Y-105429238D01*
X102161075Y-105524476D01*
X102065837Y-105572095D01*
X82748380Y-100868857D02*
X82272190Y-101202190D01*
X82748380Y-101440285D02*
X81748380Y-101440285D01*
X81748380Y-101059333D01*
X81796000Y-100964095D01*
X81843619Y-100916476D01*
X81938857Y-100868857D01*
X82081714Y-100868857D01*
X82176952Y-100916476D01*
X82224571Y-100964095D01*
X82272190Y-101059333D01*
X82272190Y-101440285D01*
X82748380Y-99916476D02*
X82748380Y-100487904D01*
X82748380Y-100202190D02*
X81748380Y-100202190D01*
X81891238Y-100297428D01*
X81986476Y-100392666D01*
X82034095Y-100487904D01*
X81748380Y-99583142D02*
X81748380Y-98964095D01*
X82129333Y-99297428D01*
X82129333Y-99154571D01*
X82176952Y-99059333D01*
X82224571Y-99011714D01*
X82319809Y-98964095D01*
X82557904Y-98964095D01*
X82653142Y-99011714D01*
X82700761Y-99059333D01*
X82748380Y-99154571D01*
X82748380Y-99440285D01*
X82700761Y-99535523D01*
X82653142Y-99583142D01*
X115943142Y-78081142D02*
X115895523Y-78128761D01*
X115752666Y-78176380D01*
X115657428Y-78176380D01*
X115514571Y-78128761D01*
X115419333Y-78033523D01*
X115371714Y-77938285D01*
X115324095Y-77747809D01*
X115324095Y-77604952D01*
X115371714Y-77414476D01*
X115419333Y-77319238D01*
X115514571Y-77224000D01*
X115657428Y-77176380D01*
X115752666Y-77176380D01*
X115895523Y-77224000D01*
X115943142Y-77271619D01*
X116895523Y-78176380D02*
X116324095Y-78176380D01*
X116609809Y-78176380D02*
X116609809Y-77176380D01*
X116514571Y-77319238D01*
X116419333Y-77414476D01*
X116324095Y-77462095D01*
X117800285Y-77176380D02*
X117324095Y-77176380D01*
X117276476Y-77652571D01*
X117324095Y-77604952D01*
X117419333Y-77557333D01*
X117657428Y-77557333D01*
X117752666Y-77604952D01*
X117800285Y-77652571D01*
X117847904Y-77747809D01*
X117847904Y-77985904D01*
X117800285Y-78081142D01*
X117752666Y-78128761D01*
X117657428Y-78176380D01*
X117419333Y-78176380D01*
X117324095Y-78128761D01*
X117276476Y-78081142D01*
X88049380Y-72723333D02*
X88763666Y-72723333D01*
X88906523Y-72770952D01*
X89001761Y-72866190D01*
X89049380Y-73009047D01*
X89049380Y-73104285D01*
X88049380Y-72342380D02*
X88049380Y-71723333D01*
X88430333Y-72056666D01*
X88430333Y-71913809D01*
X88477952Y-71818571D01*
X88525571Y-71770952D01*
X88620809Y-71723333D01*
X88858904Y-71723333D01*
X88954142Y-71770952D01*
X89001761Y-71818571D01*
X89049380Y-71913809D01*
X89049380Y-72199523D01*
X89001761Y-72294761D01*
X88954142Y-72342380D01*
X105354380Y-113418857D02*
X104878190Y-113752190D01*
X105354380Y-113990285D02*
X104354380Y-113990285D01*
X104354380Y-113609333D01*
X104402000Y-113514095D01*
X104449619Y-113466476D01*
X104544857Y-113418857D01*
X104687714Y-113418857D01*
X104782952Y-113466476D01*
X104830571Y-113514095D01*
X104878190Y-113609333D01*
X104878190Y-113990285D01*
X105354380Y-112466476D02*
X105354380Y-113037904D01*
X105354380Y-112752190D02*
X104354380Y-112752190D01*
X104497238Y-112847428D01*
X104592476Y-112942666D01*
X104640095Y-113037904D01*
X104449619Y-112085523D02*
X104402000Y-112037904D01*
X104354380Y-111942666D01*
X104354380Y-111704571D01*
X104402000Y-111609333D01*
X104449619Y-111561714D01*
X104544857Y-111514095D01*
X104640095Y-111514095D01*
X104782952Y-111561714D01*
X105354380Y-112133142D01*
X105354380Y-111514095D01*
X69876354Y-94044691D02*
X69876354Y-94758977D01*
X69828735Y-94901834D01*
X69733497Y-94997072D01*
X69590640Y-95044691D01*
X69495402Y-95044691D01*
X70876354Y-95044691D02*
X70304926Y-95044691D01*
X70590640Y-95044691D02*
X70590640Y-94044691D01*
X70495402Y-94187549D01*
X70400164Y-94282787D01*
X70304926Y-94330406D01*
X111879142Y-100179142D02*
X111831523Y-100226761D01*
X111688666Y-100274380D01*
X111593428Y-100274380D01*
X111450571Y-100226761D01*
X111355333Y-100131523D01*
X111307714Y-100036285D01*
X111260095Y-99845809D01*
X111260095Y-99702952D01*
X111307714Y-99512476D01*
X111355333Y-99417238D01*
X111450571Y-99322000D01*
X111593428Y-99274380D01*
X111688666Y-99274380D01*
X111831523Y-99322000D01*
X111879142Y-99369619D01*
X112831523Y-100274380D02*
X112260095Y-100274380D01*
X112545809Y-100274380D02*
X112545809Y-99274380D01*
X112450571Y-99417238D01*
X112355333Y-99512476D01*
X112260095Y-99560095D01*
X113450571Y-99274380D02*
X113545809Y-99274380D01*
X113641047Y-99322000D01*
X113688666Y-99369619D01*
X113736285Y-99464857D01*
X113783904Y-99655333D01*
X113783904Y-99893428D01*
X113736285Y-100083904D01*
X113688666Y-100179142D01*
X113641047Y-100226761D01*
X113545809Y-100274380D01*
X113450571Y-100274380D01*
X113355333Y-100226761D01*
X113307714Y-100179142D01*
X113260095Y-100083904D01*
X113212476Y-99893428D01*
X113212476Y-99655333D01*
X113260095Y-99464857D01*
X113307714Y-99369619D01*
X113355333Y-99322000D01*
X113450571Y-99274380D01*
X109920380Y-110463238D02*
X109444190Y-110796571D01*
X109920380Y-111034666D02*
X108920380Y-111034666D01*
X108920380Y-110653714D01*
X108968000Y-110558476D01*
X109015619Y-110510857D01*
X109110857Y-110463238D01*
X109253714Y-110463238D01*
X109348952Y-110510857D01*
X109396571Y-110558476D01*
X109444190Y-110653714D01*
X109444190Y-111034666D01*
X108920380Y-110177523D02*
X109920380Y-109844190D01*
X108920380Y-109510857D01*
X109015619Y-109225142D02*
X108968000Y-109177523D01*
X108920380Y-109082285D01*
X108920380Y-108844190D01*
X108968000Y-108748952D01*
X109015619Y-108701333D01*
X109110857Y-108653714D01*
X109206095Y-108653714D01*
X109348952Y-108701333D01*
X109920380Y-109272761D01*
X109920380Y-108653714D01*
X115435142Y-94845142D02*
X115387523Y-94892761D01*
X115244666Y-94940380D01*
X115149428Y-94940380D01*
X115006571Y-94892761D01*
X114911333Y-94797523D01*
X114863714Y-94702285D01*
X114816095Y-94511809D01*
X114816095Y-94368952D01*
X114863714Y-94178476D01*
X114911333Y-94083238D01*
X115006571Y-93988000D01*
X115149428Y-93940380D01*
X115244666Y-93940380D01*
X115387523Y-93988000D01*
X115435142Y-94035619D01*
X116387523Y-94940380D02*
X115816095Y-94940380D01*
X116101809Y-94940380D02*
X116101809Y-93940380D01*
X116006571Y-94083238D01*
X115911333Y-94178476D01*
X115816095Y-94226095D01*
X117244666Y-94273714D02*
X117244666Y-94940380D01*
X117006571Y-93892761D02*
X116768476Y-94607047D01*
X117387523Y-94607047D01*
X84018380Y-128150857D02*
X83542190Y-128484190D01*
X84018380Y-128722285D02*
X83018380Y-128722285D01*
X83018380Y-128341333D01*
X83066000Y-128246095D01*
X83113619Y-128198476D01*
X83208857Y-128150857D01*
X83351714Y-128150857D01*
X83446952Y-128198476D01*
X83494571Y-128246095D01*
X83542190Y-128341333D01*
X83542190Y-128722285D01*
X84018380Y-127198476D02*
X84018380Y-127769904D01*
X84018380Y-127484190D02*
X83018380Y-127484190D01*
X83161238Y-127579428D01*
X83256476Y-127674666D01*
X83304095Y-127769904D01*
X84018380Y-126246095D02*
X84018380Y-126817523D01*
X84018380Y-126531809D02*
X83018380Y-126531809D01*
X83161238Y-126627047D01*
X83256476Y-126722285D01*
X83304095Y-126817523D01*
X70612095Y-78430380D02*
X70612095Y-77430380D01*
X70612095Y-77906571D02*
X71183523Y-77906571D01*
X71183523Y-78430380D02*
X71183523Y-77430380D01*
X72183523Y-78430380D02*
X71612095Y-78430380D01*
X71897809Y-78430380D02*
X71897809Y-77430380D01*
X71802571Y-77573238D01*
X71707333Y-77668476D01*
X71612095Y-77716095D01*
X77065142Y-91716666D02*
X77112761Y-91764285D01*
X77160380Y-91907142D01*
X77160380Y-92002380D01*
X77112761Y-92145238D01*
X77017523Y-92240476D01*
X76922285Y-92288095D01*
X76731809Y-92335714D01*
X76588952Y-92335714D01*
X76398476Y-92288095D01*
X76303238Y-92240476D01*
X76208000Y-92145238D01*
X76160380Y-92002380D01*
X76160380Y-91907142D01*
X76208000Y-91764285D01*
X76255619Y-91716666D01*
X76588952Y-91145238D02*
X76541333Y-91240476D01*
X76493714Y-91288095D01*
X76398476Y-91335714D01*
X76350857Y-91335714D01*
X76255619Y-91288095D01*
X76208000Y-91240476D01*
X76160380Y-91145238D01*
X76160380Y-90954761D01*
X76208000Y-90859523D01*
X76255619Y-90811904D01*
X76350857Y-90764285D01*
X76398476Y-90764285D01*
X76493714Y-90811904D01*
X76541333Y-90859523D01*
X76588952Y-90954761D01*
X76588952Y-91145238D01*
X76636571Y-91240476D01*
X76684190Y-91288095D01*
X76779428Y-91335714D01*
X76969904Y-91335714D01*
X77065142Y-91288095D01*
X77112761Y-91240476D01*
X77160380Y-91145238D01*
X77160380Y-90954761D01*
X77112761Y-90859523D01*
X77065142Y-90811904D01*
X76969904Y-90764285D01*
X76779428Y-90764285D01*
X76684190Y-90811904D01*
X76636571Y-90859523D01*
X76588952Y-90954761D01*
X110490095Y-71318380D02*
X110490095Y-70318380D01*
X110490095Y-70794571D02*
X111061523Y-70794571D01*
X111061523Y-71318380D02*
X111061523Y-70318380D01*
X111490095Y-70413619D02*
X111537714Y-70366000D01*
X111632952Y-70318380D01*
X111871047Y-70318380D01*
X111966285Y-70366000D01*
X112013904Y-70413619D01*
X112061523Y-70508857D01*
X112061523Y-70604095D01*
X112013904Y-70746952D01*
X111442476Y-71318380D01*
X112061523Y-71318380D01*
X76541333Y-123642380D02*
X76208000Y-123166190D01*
X75969904Y-123642380D02*
X75969904Y-122642380D01*
X76350857Y-122642380D01*
X76446095Y-122690000D01*
X76493714Y-122737619D01*
X76541333Y-122832857D01*
X76541333Y-122975714D01*
X76493714Y-123070952D01*
X76446095Y-123118571D01*
X76350857Y-123166190D01*
X75969904Y-123166190D01*
X77398476Y-122975714D02*
X77398476Y-123642380D01*
X77160380Y-122594761D02*
X76922285Y-123309047D01*
X77541333Y-123309047D01*
X111704380Y-77096857D02*
X111228190Y-77430190D01*
X111704380Y-77668285D02*
X110704380Y-77668285D01*
X110704380Y-77287333D01*
X110752000Y-77192095D01*
X110799619Y-77144476D01*
X110894857Y-77096857D01*
X111037714Y-77096857D01*
X111132952Y-77144476D01*
X111180571Y-77192095D01*
X111228190Y-77287333D01*
X111228190Y-77668285D01*
X111704380Y-76144476D02*
X111704380Y-76715904D01*
X111704380Y-76430190D02*
X110704380Y-76430190D01*
X110847238Y-76525428D01*
X110942476Y-76620666D01*
X110990095Y-76715904D01*
X110704380Y-75811142D02*
X110704380Y-75144476D01*
X111704380Y-75573047D01*
X72223333Y-81478380D02*
X71890000Y-81002190D01*
X71651904Y-81478380D02*
X71651904Y-80478380D01*
X72032857Y-80478380D01*
X72128095Y-80526000D01*
X72175714Y-80573619D01*
X72223333Y-80668857D01*
X72223333Y-80811714D01*
X72175714Y-80906952D01*
X72128095Y-80954571D01*
X72032857Y-81002190D01*
X71651904Y-81002190D01*
X73080476Y-80478380D02*
X72890000Y-80478380D01*
X72794761Y-80526000D01*
X72747142Y-80573619D01*
X72651904Y-80716476D01*
X72604285Y-80906952D01*
X72604285Y-81287904D01*
X72651904Y-81383142D01*
X72699523Y-81430761D01*
X72794761Y-81478380D01*
X72985238Y-81478380D01*
X73080476Y-81430761D01*
X73128095Y-81383142D01*
X73175714Y-81287904D01*
X73175714Y-81049809D01*
X73128095Y-80954571D01*
X73080476Y-80906952D01*
X72985238Y-80859333D01*
X72794761Y-80859333D01*
X72699523Y-80906952D01*
X72651904Y-80954571D01*
X72604285Y-81049809D01*
X91268095Y-109002380D02*
X91268095Y-109811904D01*
X91315714Y-109907142D01*
X91363333Y-109954761D01*
X91458571Y-110002380D01*
X91649047Y-110002380D01*
X91744285Y-109954761D01*
X91791904Y-109907142D01*
X91839523Y-109811904D01*
X91839523Y-109002380D01*
X92268095Y-109097619D02*
X92315714Y-109050000D01*
X92410952Y-109002380D01*
X92649047Y-109002380D01*
X92744285Y-109050000D01*
X92791904Y-109097619D01*
X92839523Y-109192857D01*
X92839523Y-109288095D01*
X92791904Y-109430952D01*
X92220476Y-110002380D01*
X92839523Y-110002380D01*
X87320380Y-77096857D02*
X86844190Y-77430190D01*
X87320380Y-77668285D02*
X86320380Y-77668285D01*
X86320380Y-77287333D01*
X86368000Y-77192095D01*
X86415619Y-77144476D01*
X86510857Y-77096857D01*
X86653714Y-77096857D01*
X86748952Y-77144476D01*
X86796571Y-77192095D01*
X86844190Y-77287333D01*
X86844190Y-77668285D01*
X87320380Y-76144476D02*
X87320380Y-76715904D01*
X87320380Y-76430190D02*
X86320380Y-76430190D01*
X86463238Y-76525428D01*
X86558476Y-76620666D01*
X86606095Y-76715904D01*
X86320380Y-75239714D02*
X86320380Y-75715904D01*
X86796571Y-75763523D01*
X86748952Y-75715904D01*
X86701333Y-75620666D01*
X86701333Y-75382571D01*
X86748952Y-75287333D01*
X86796571Y-75239714D01*
X86891809Y-75192095D01*
X87129904Y-75192095D01*
X87225142Y-75239714D01*
X87272761Y-75287333D01*
X87320380Y-75382571D01*
X87320380Y-75620666D01*
X87272761Y-75715904D01*
X87225142Y-75763523D01*
X97734380Y-72778857D02*
X97258190Y-73112190D01*
X97734380Y-73350285D02*
X96734380Y-73350285D01*
X96734380Y-72969333D01*
X96782000Y-72874095D01*
X96829619Y-72826476D01*
X96924857Y-72778857D01*
X97067714Y-72778857D01*
X97162952Y-72826476D01*
X97210571Y-72874095D01*
X97258190Y-72969333D01*
X97258190Y-73350285D01*
X97734380Y-71826476D02*
X97734380Y-72397904D01*
X97734380Y-72112190D02*
X96734380Y-72112190D01*
X96877238Y-72207428D01*
X96972476Y-72302666D01*
X97020095Y-72397904D01*
X97067714Y-70969333D02*
X97734380Y-70969333D01*
X96686761Y-71207428D02*
X97401047Y-71445523D01*
X97401047Y-70826476D01*
X77922380Y-104227238D02*
X77446190Y-104560571D01*
X77922380Y-104798666D02*
X76922380Y-104798666D01*
X76922380Y-104417714D01*
X76970000Y-104322476D01*
X77017619Y-104274857D01*
X77112857Y-104227238D01*
X77255714Y-104227238D01*
X77350952Y-104274857D01*
X77398571Y-104322476D01*
X77446190Y-104417714D01*
X77446190Y-104798666D01*
X76922380Y-103941523D02*
X77922380Y-103608190D01*
X76922380Y-103274857D01*
X77922380Y-102417714D02*
X77922380Y-102989142D01*
X77922380Y-102703428D02*
X76922380Y-102703428D01*
X77065238Y-102798666D01*
X77160476Y-102893904D01*
X77208095Y-102989142D01*
X83820095Y-79970380D02*
X83820095Y-80779904D01*
X83867714Y-80875142D01*
X83915333Y-80922761D01*
X84010571Y-80970380D01*
X84201047Y-80970380D01*
X84296285Y-80922761D01*
X84343904Y-80875142D01*
X84391523Y-80779904D01*
X84391523Y-79970380D01*
X84772476Y-79970380D02*
X85391523Y-79970380D01*
X85058190Y-80351333D01*
X85201047Y-80351333D01*
X85296285Y-80398952D01*
X85343904Y-80446571D01*
X85391523Y-80541809D01*
X85391523Y-80779904D01*
X85343904Y-80875142D01*
X85296285Y-80922761D01*
X85201047Y-80970380D01*
X84915333Y-80970380D01*
X84820095Y-80922761D01*
X84772476Y-80875142D01*
X107646221Y-123209142D02*
X107598602Y-123256761D01*
X107455745Y-123304380D01*
X107360507Y-123304380D01*
X107217649Y-123256761D01*
X107122411Y-123161523D01*
X107074792Y-123066285D01*
X107027173Y-122875809D01*
X107027173Y-122732952D01*
X107074792Y-122542476D01*
X107122411Y-122447238D01*
X107217649Y-122352000D01*
X107360507Y-122304380D01*
X107455745Y-122304380D01*
X107598602Y-122352000D01*
X107646221Y-122399619D01*
X107979554Y-122304380D02*
X108598602Y-122304380D01*
X108265268Y-122685333D01*
X108408126Y-122685333D01*
X108503364Y-122732952D01*
X108550983Y-122780571D01*
X108598602Y-122875809D01*
X108598602Y-123113904D01*
X108550983Y-123209142D01*
X108503364Y-123256761D01*
X108408126Y-123304380D01*
X108122411Y-123304380D01*
X108027173Y-123256761D01*
X107979554Y-123209142D01*
X95083333Y-105250380D02*
X94750000Y-104774190D01*
X94511904Y-105250380D02*
X94511904Y-104250380D01*
X94892857Y-104250380D01*
X94988095Y-104298000D01*
X95035714Y-104345619D01*
X95083333Y-104440857D01*
X95083333Y-104583714D01*
X95035714Y-104678952D01*
X94988095Y-104726571D01*
X94892857Y-104774190D01*
X94511904Y-104774190D01*
X95988095Y-104250380D02*
X95511904Y-104250380D01*
X95464285Y-104726571D01*
X95511904Y-104678952D01*
X95607142Y-104631333D01*
X95845238Y-104631333D01*
X95940476Y-104678952D01*
X95988095Y-104726571D01*
X96035714Y-104821809D01*
X96035714Y-105059904D01*
X95988095Y-105155142D01*
X95940476Y-105202761D01*
X95845238Y-105250380D01*
X95607142Y-105250380D01*
X95511904Y-105202761D01*
X95464285Y-105155142D01*
X85952380Y-114830666D02*
X85476190Y-115164000D01*
X85952380Y-115402095D02*
X84952380Y-115402095D01*
X84952380Y-115021142D01*
X85000000Y-114925904D01*
X85047619Y-114878285D01*
X85142857Y-114830666D01*
X85285714Y-114830666D01*
X85380952Y-114878285D01*
X85428571Y-114925904D01*
X85476190Y-115021142D01*
X85476190Y-115402095D01*
X85380952Y-114259238D02*
X85333333Y-114354476D01*
X85285714Y-114402095D01*
X85190476Y-114449714D01*
X85142857Y-114449714D01*
X85047619Y-114402095D01*
X85000000Y-114354476D01*
X84952380Y-114259238D01*
X84952380Y-114068761D01*
X85000000Y-113973523D01*
X85047619Y-113925904D01*
X85142857Y-113878285D01*
X85190476Y-113878285D01*
X85285714Y-113925904D01*
X85333333Y-113973523D01*
X85380952Y-114068761D01*
X85380952Y-114259238D01*
X85428571Y-114354476D01*
X85476190Y-114402095D01*
X85571428Y-114449714D01*
X85761904Y-114449714D01*
X85857142Y-114402095D01*
X85904761Y-114354476D01*
X85952380Y-114259238D01*
X85952380Y-114068761D01*
X85904761Y-113973523D01*
X85857142Y-113925904D01*
X85761904Y-113878285D01*
X85571428Y-113878285D01*
X85476190Y-113925904D01*
X85428571Y-113973523D01*
X85380952Y-114068761D01*
X107120380Y-98432857D02*
X106644190Y-98766190D01*
X107120380Y-99004285D02*
X106120380Y-99004285D01*
X106120380Y-98623333D01*
X106168000Y-98528095D01*
X106215619Y-98480476D01*
X106310857Y-98432857D01*
X106453714Y-98432857D01*
X106548952Y-98480476D01*
X106596571Y-98528095D01*
X106644190Y-98623333D01*
X106644190Y-99004285D01*
X107120380Y-97480476D02*
X107120380Y-98051904D01*
X107120380Y-97766190D02*
X106120380Y-97766190D01*
X106263238Y-97861428D01*
X106358476Y-97956666D01*
X106406095Y-98051904D01*
X106548952Y-96909047D02*
X106501333Y-97004285D01*
X106453714Y-97051904D01*
X106358476Y-97099523D01*
X106310857Y-97099523D01*
X106215619Y-97051904D01*
X106168000Y-97004285D01*
X106120380Y-96909047D01*
X106120380Y-96718571D01*
X106168000Y-96623333D01*
X106215619Y-96575714D01*
X106310857Y-96528095D01*
X106358476Y-96528095D01*
X106453714Y-96575714D01*
X106501333Y-96623333D01*
X106548952Y-96718571D01*
X106548952Y-96909047D01*
X106596571Y-97004285D01*
X106644190Y-97051904D01*
X106739428Y-97099523D01*
X106929904Y-97099523D01*
X107025142Y-97051904D01*
X107072761Y-97004285D01*
X107120380Y-96909047D01*
X107120380Y-96718571D01*
X107072761Y-96623333D01*
X107025142Y-96575714D01*
X106929904Y-96528095D01*
X106739428Y-96528095D01*
X106644190Y-96575714D01*
X106596571Y-96623333D01*
X106548952Y-96718571D01*
X77065142Y-97194666D02*
X77112761Y-97242285D01*
X77160380Y-97385142D01*
X77160380Y-97480380D01*
X77112761Y-97623238D01*
X77017523Y-97718476D01*
X76922285Y-97766095D01*
X76731809Y-97813714D01*
X76588952Y-97813714D01*
X76398476Y-97766095D01*
X76303238Y-97718476D01*
X76208000Y-97623238D01*
X76160380Y-97480380D01*
X76160380Y-97385142D01*
X76208000Y-97242285D01*
X76255619Y-97194666D01*
X76255619Y-96813714D02*
X76208000Y-96766095D01*
X76160380Y-96670857D01*
X76160380Y-96432761D01*
X76208000Y-96337523D01*
X76255619Y-96289904D01*
X76350857Y-96242285D01*
X76446095Y-96242285D01*
X76588952Y-96289904D01*
X77160380Y-96861333D01*
X77160380Y-96242285D01*
X107021333Y-118562380D02*
X106688000Y-118086190D01*
X106449904Y-118562380D02*
X106449904Y-117562380D01*
X106830857Y-117562380D01*
X106926095Y-117610000D01*
X106973714Y-117657619D01*
X107021333Y-117752857D01*
X107021333Y-117895714D01*
X106973714Y-117990952D01*
X106926095Y-118038571D01*
X106830857Y-118086190D01*
X106449904Y-118086190D01*
X107402285Y-117657619D02*
X107449904Y-117610000D01*
X107545142Y-117562380D01*
X107783238Y-117562380D01*
X107878476Y-117610000D01*
X107926095Y-117657619D01*
X107973714Y-117752857D01*
X107973714Y-117848095D01*
X107926095Y-117990952D01*
X107354666Y-118562380D01*
X107973714Y-118562380D01*
X76912221Y-75711142D02*
X76864602Y-75758761D01*
X76721745Y-75806380D01*
X76626507Y-75806380D01*
X76483649Y-75758761D01*
X76388411Y-75663523D01*
X76340792Y-75568285D01*
X76293173Y-75377809D01*
X76293173Y-75234952D01*
X76340792Y-75044476D01*
X76388411Y-74949238D01*
X76483649Y-74854000D01*
X76626507Y-74806380D01*
X76721745Y-74806380D01*
X76864602Y-74854000D01*
X76912221Y-74901619D01*
X77769364Y-75139714D02*
X77769364Y-75806380D01*
X77531268Y-74758761D02*
X77293173Y-75473047D01*
X77912221Y-75473047D01*
X103973333Y-116943142D02*
X103925714Y-116990761D01*
X103782857Y-117038380D01*
X103687619Y-117038380D01*
X103544761Y-116990761D01*
X103449523Y-116895523D01*
X103401904Y-116800285D01*
X103354285Y-116609809D01*
X103354285Y-116466952D01*
X103401904Y-116276476D01*
X103449523Y-116181238D01*
X103544761Y-116086000D01*
X103687619Y-116038380D01*
X103782857Y-116038380D01*
X103925714Y-116086000D01*
X103973333Y-116133619D01*
X104449523Y-117038380D02*
X104640000Y-117038380D01*
X104735238Y-116990761D01*
X104782857Y-116943142D01*
X104878095Y-116800285D01*
X104925714Y-116609809D01*
X104925714Y-116228857D01*
X104878095Y-116133619D01*
X104830476Y-116086000D01*
X104735238Y-116038380D01*
X104544761Y-116038380D01*
X104449523Y-116086000D01*
X104401904Y-116133619D01*
X104354285Y-116228857D01*
X104354285Y-116466952D01*
X104401904Y-116562190D01*
X104449523Y-116609809D01*
X104544761Y-116657428D01*
X104735238Y-116657428D01*
X104830476Y-116609809D01*
X104878095Y-116562190D01*
X104925714Y-116466952D01*
X81621333Y-124817142D02*
X81573714Y-124864761D01*
X81430857Y-124912380D01*
X81335619Y-124912380D01*
X81192761Y-124864761D01*
X81097523Y-124769523D01*
X81049904Y-124674285D01*
X81002285Y-124483809D01*
X81002285Y-124340952D01*
X81049904Y-124150476D01*
X81097523Y-124055238D01*
X81192761Y-123960000D01*
X81335619Y-123912380D01*
X81430857Y-123912380D01*
X81573714Y-123960000D01*
X81621333Y-124007619D01*
X82478476Y-123912380D02*
X82288000Y-123912380D01*
X82192761Y-123960000D01*
X82145142Y-124007619D01*
X82049904Y-124150476D01*
X82002285Y-124340952D01*
X82002285Y-124721904D01*
X82049904Y-124817142D01*
X82097523Y-124864761D01*
X82192761Y-124912380D01*
X82383238Y-124912380D01*
X82478476Y-124864761D01*
X82526095Y-124817142D01*
X82573714Y-124721904D01*
X82573714Y-124483809D01*
X82526095Y-124388571D01*
X82478476Y-124340952D01*
X82383238Y-124293333D01*
X82192761Y-124293333D01*
X82097523Y-124340952D01*
X82049904Y-124388571D01*
X82002285Y-124483809D01*
X99759142Y-104786380D02*
X99425809Y-104310190D01*
X99187714Y-104786380D02*
X99187714Y-103786380D01*
X99568666Y-103786380D01*
X99663904Y-103834000D01*
X99711523Y-103881619D01*
X99759142Y-103976857D01*
X99759142Y-104119714D01*
X99711523Y-104214952D01*
X99663904Y-104262571D01*
X99568666Y-104310190D01*
X99187714Y-104310190D01*
X100140095Y-103881619D02*
X100187714Y-103834000D01*
X100282952Y-103786380D01*
X100521047Y-103786380D01*
X100616285Y-103834000D01*
X100663904Y-103881619D01*
X100711523Y-103976857D01*
X100711523Y-104072095D01*
X100663904Y-104214952D01*
X100092476Y-104786380D01*
X100711523Y-104786380D01*
X101663904Y-104786380D02*
X101092476Y-104786380D01*
X101378190Y-104786380D02*
X101378190Y-103786380D01*
X101282952Y-103929238D01*
X101187714Y-104024476D01*
X101092476Y-104072095D01*
X104767142Y-88241142D02*
X104719523Y-88288761D01*
X104576666Y-88336380D01*
X104481428Y-88336380D01*
X104338571Y-88288761D01*
X104243333Y-88193523D01*
X104195714Y-88098285D01*
X104148095Y-87907809D01*
X104148095Y-87764952D01*
X104195714Y-87574476D01*
X104243333Y-87479238D01*
X104338571Y-87384000D01*
X104481428Y-87336380D01*
X104576666Y-87336380D01*
X104719523Y-87384000D01*
X104767142Y-87431619D01*
X105719523Y-88336380D02*
X105148095Y-88336380D01*
X105433809Y-88336380D02*
X105433809Y-87336380D01*
X105338571Y-87479238D01*
X105243333Y-87574476D01*
X105148095Y-87622095D01*
X106671904Y-88336380D02*
X106100476Y-88336380D01*
X106386190Y-88336380D02*
X106386190Y-87336380D01*
X106290952Y-87479238D01*
X106195714Y-87574476D01*
X106100476Y-87622095D01*
X74930095Y-129738380D02*
X74930095Y-128738380D01*
X74930095Y-129214571D02*
X75501523Y-129214571D01*
X75501523Y-129738380D02*
X75501523Y-128738380D01*
X75882476Y-128738380D02*
X76501523Y-128738380D01*
X76168190Y-129119333D01*
X76311047Y-129119333D01*
X76406285Y-129166952D01*
X76453904Y-129214571D01*
X76501523Y-129309809D01*
X76501523Y-129547904D01*
X76453904Y-129643142D01*
X76406285Y-129690761D01*
X76311047Y-129738380D01*
X76025333Y-129738380D01*
X75930095Y-129690761D01*
X75882476Y-129643142D01*
X97011380Y-128205333D02*
X97725666Y-128205333D01*
X97868523Y-128252952D01*
X97963761Y-128348190D01*
X98011380Y-128491047D01*
X98011380Y-128586285D01*
X97344714Y-127300571D02*
X98011380Y-127300571D01*
X96963761Y-127538666D02*
X97678047Y-127776761D01*
X97678047Y-127157714D01*
X84939142Y-91716666D02*
X84986761Y-91764285D01*
X85034380Y-91907142D01*
X85034380Y-92002380D01*
X84986761Y-92145238D01*
X84891523Y-92240476D01*
X84796285Y-92288095D01*
X84605809Y-92335714D01*
X84462952Y-92335714D01*
X84272476Y-92288095D01*
X84177238Y-92240476D01*
X84082000Y-92145238D01*
X84034380Y-92002380D01*
X84034380Y-91907142D01*
X84082000Y-91764285D01*
X84129619Y-91716666D01*
X84034380Y-91383333D02*
X84034380Y-90716666D01*
X85034380Y-91145238D01*
X88312666Y-101052380D02*
X88312666Y-101766666D01*
X88265047Y-101909523D01*
X88169809Y-102004761D01*
X88026952Y-102052380D01*
X87931714Y-102052380D01*
X89265047Y-101052380D02*
X88788857Y-101052380D01*
X88741238Y-101528571D01*
X88788857Y-101480952D01*
X88884095Y-101433333D01*
X89122190Y-101433333D01*
X89217428Y-101480952D01*
X89265047Y-101528571D01*
X89312666Y-101623809D01*
X89312666Y-101861904D01*
X89265047Y-101957142D01*
X89217428Y-102004761D01*
X89122190Y-102052380D01*
X88884095Y-102052380D01*
X88788857Y-102004761D01*
X88741238Y-101957142D01*
X97909142Y-78843142D02*
X97861523Y-78890761D01*
X97718666Y-78938380D01*
X97623428Y-78938380D01*
X97480571Y-78890761D01*
X97385333Y-78795523D01*
X97337714Y-78700285D01*
X97290095Y-78509809D01*
X97290095Y-78366952D01*
X97337714Y-78176476D01*
X97385333Y-78081238D01*
X97480571Y-77986000D01*
X97623428Y-77938380D01*
X97718666Y-77938380D01*
X97861523Y-77986000D01*
X97909142Y-78033619D01*
X98861523Y-78938380D02*
X98290095Y-78938380D01*
X98575809Y-78938380D02*
X98575809Y-77938380D01*
X98480571Y-78081238D01*
X98385333Y-78176476D01*
X98290095Y-78224095D01*
X99194857Y-77938380D02*
X99813904Y-77938380D01*
X99480571Y-78319333D01*
X99623428Y-78319333D01*
X99718666Y-78366952D01*
X99766285Y-78414571D01*
X99813904Y-78509809D01*
X99813904Y-78747904D01*
X99766285Y-78843142D01*
X99718666Y-78890761D01*
X99623428Y-78938380D01*
X99337714Y-78938380D01*
X99242476Y-78890761D01*
X99194857Y-78843142D01*
X72239142Y-89574666D02*
X72286761Y-89622285D01*
X72334380Y-89765142D01*
X72334380Y-89860380D01*
X72286761Y-90003238D01*
X72191523Y-90098476D01*
X72096285Y-90146095D01*
X71905809Y-90193714D01*
X71762952Y-90193714D01*
X71572476Y-90146095D01*
X71477238Y-90098476D01*
X71382000Y-90003238D01*
X71334380Y-89860380D01*
X71334380Y-89765142D01*
X71382000Y-89622285D01*
X71429619Y-89574666D01*
X71334380Y-88669904D02*
X71334380Y-89146095D01*
X71810571Y-89193714D01*
X71762952Y-89146095D01*
X71715333Y-89050857D01*
X71715333Y-88812761D01*
X71762952Y-88717523D01*
X71810571Y-88669904D01*
X71905809Y-88622285D01*
X72143904Y-88622285D01*
X72239142Y-88669904D01*
X72286761Y-88717523D01*
X72334380Y-88812761D01*
X72334380Y-89050857D01*
X72286761Y-89146095D01*
X72239142Y-89193714D01*
X81367333Y-107790380D02*
X81034000Y-107314190D01*
X80795904Y-107790380D02*
X80795904Y-106790380D01*
X81176857Y-106790380D01*
X81272095Y-106838000D01*
X81319714Y-106885619D01*
X81367333Y-106980857D01*
X81367333Y-107123714D01*
X81319714Y-107218952D01*
X81272095Y-107266571D01*
X81176857Y-107314190D01*
X80795904Y-107314190D01*
X81700666Y-106790380D02*
X82367333Y-106790380D01*
X81938761Y-107790380D01*
X111252095Y-123388380D02*
X111252095Y-122388380D01*
X111252095Y-122864571D02*
X111823523Y-122864571D01*
X111823523Y-123388380D02*
X111823523Y-122388380D01*
X112728285Y-122721714D02*
X112728285Y-123388380D01*
X112490190Y-122340761D02*
X112252095Y-123055047D01*
X112871142Y-123055047D01*
D13*
X115093314Y-96922311D02*
X115093314Y-95592311D01*
X115093314Y-95592311D02*
X116423314Y-95592311D01*
X115093314Y-98192311D02*
X115093314Y-98252311D01*
X117753314Y-98192311D02*
X117753314Y-98252311D01*
X115093314Y-98252311D02*
X117753314Y-98252311D01*
X115093314Y-98192311D02*
X117753314Y-98192311D01*
X103858000Y-83898000D02*
X106598000Y-83898000D01*
X106598000Y-83898000D02*
X106598000Y-77358000D01*
X103858000Y-77358000D02*
X103858000Y-83898000D01*
X105228000Y-84668000D02*
X105228000Y-83898000D01*
X105228000Y-76588000D02*
X105228000Y-77358000D01*
X106598000Y-77358000D02*
X103858000Y-77358000D01*
X103550000Y-96598000D02*
X103550000Y-90058000D01*
X102180000Y-89288000D02*
X102180000Y-90058000D01*
X100810000Y-90058000D02*
X100810000Y-96598000D01*
X103550000Y-90058000D02*
X100810000Y-90058000D01*
X102180000Y-97368000D02*
X102180000Y-96598000D01*
X100810000Y-96598000D02*
X103550000Y-96598000D01*
X112848000Y-87970000D02*
X112848000Y-87200000D01*
X111478000Y-87200000D02*
X114218000Y-87200000D01*
X111478000Y-80660000D02*
X111478000Y-87200000D01*
X114218000Y-87200000D02*
X114218000Y-80660000D01*
X112848000Y-79890000D02*
X112848000Y-80660000D01*
X114218000Y-80660000D02*
X111478000Y-80660000D01*
X102280000Y-116474000D02*
X99540000Y-116474000D01*
X100910000Y-123784000D02*
X100910000Y-123014000D01*
X100910000Y-115704000D02*
X100910000Y-116474000D01*
X102280000Y-123014000D02*
X102280000Y-116474000D01*
X99540000Y-116474000D02*
X99540000Y-123014000D01*
X99540000Y-123014000D02*
X102280000Y-123014000D01*
X95036000Y-121930000D02*
X88496000Y-121930000D01*
X88496000Y-124670000D02*
X95036000Y-124670000D01*
X87726000Y-123300000D02*
X88496000Y-123300000D01*
X95806000Y-123300000D02*
X95036000Y-123300000D01*
X88496000Y-121930000D02*
X88496000Y-124670000D01*
X95036000Y-124670000D02*
X95036000Y-121930000D01*
X98624000Y-97368000D02*
X98624000Y-96598000D01*
X97254000Y-96598000D02*
X99994000Y-96598000D01*
X98624000Y-89288000D02*
X98624000Y-90058000D01*
X99994000Y-96598000D02*
X99994000Y-90058000D01*
X99994000Y-90058000D02*
X97254000Y-90058000D01*
X97254000Y-90058000D02*
X97254000Y-96598000D01*
X80568000Y-75472000D02*
X84168000Y-75472000D01*
X82368000Y-71021999D02*
G75*
G03*
X80529522Y-75460478I0J-2600001D01*
G01*
X84206478Y-75460478D02*
G75*
G03*
X82368000Y-71022000I-1838478J1838478D01*
G01*
X74494000Y-88018000D02*
X74494000Y-88788000D01*
X74494000Y-96098000D02*
X74494000Y-95328000D01*
X75864000Y-95328000D02*
X75864000Y-88788000D01*
X75864000Y-88788000D02*
X73124000Y-88788000D01*
X73124000Y-88788000D02*
X73124000Y-95328000D01*
X73124000Y-95328000D02*
X75864000Y-95328000D01*
X102732000Y-80400000D02*
X102717000Y-80400000D01*
X102732000Y-84940000D02*
X102717000Y-84940000D01*
X100592000Y-80400000D02*
X100592000Y-84940000D01*
X100607000Y-84940000D02*
X100592000Y-84940000D01*
X102732000Y-80400000D02*
X102732000Y-84940000D01*
X100607000Y-80400000D02*
X100592000Y-80400000D01*
X103612552Y-110624000D02*
X103612552Y-111485000D01*
X102371552Y-107056000D02*
X102371552Y-108544000D01*
X102491552Y-107083000D02*
X102491552Y-108544000D01*
X103172552Y-107360000D02*
X103172552Y-108544000D01*
X103532552Y-107613000D02*
X103532552Y-108544000D01*
X103492552Y-110624000D02*
X103492552Y-111588000D01*
X102852552Y-110624000D02*
X102852552Y-111966000D01*
X102972552Y-110624000D02*
X102972552Y-111913000D01*
X103612552Y-107683000D02*
X103612552Y-108544000D01*
X104292552Y-108669000D02*
X104292552Y-110499000D01*
X104052552Y-110624000D02*
X104052552Y-110967000D01*
X102572552Y-107104000D02*
X102572552Y-108544000D01*
X104252552Y-108573000D02*
X104252552Y-110595000D01*
X103252552Y-110624000D02*
X103252552Y-111759000D01*
X103452552Y-110624000D02*
X103452552Y-111619000D01*
X102652552Y-110624000D02*
X102652552Y-112039000D01*
X103252552Y-107409000D02*
X103252552Y-108544000D01*
X103012552Y-107274000D02*
X103012552Y-108544000D01*
X103052552Y-110624000D02*
X103052552Y-111874000D01*
X102171552Y-107023000D02*
X102171552Y-108544000D01*
X104132552Y-110624000D02*
X104132552Y-110835000D01*
X102531552Y-107093000D02*
X102531552Y-108544000D01*
X102612552Y-110624000D02*
X102612552Y-112052000D01*
X102892552Y-107219000D02*
X102892552Y-108544000D01*
X102251552Y-107034000D02*
X102251552Y-108544000D01*
X102091552Y-110624000D02*
X102091552Y-112153000D01*
X104372552Y-108907000D02*
X104372552Y-110261000D01*
X103732552Y-107799000D02*
X103732552Y-108544000D01*
X102772552Y-110624000D02*
X102772552Y-111998000D01*
X103372552Y-110624000D02*
X103372552Y-111679000D01*
X103692552Y-110624000D02*
X103692552Y-111410000D01*
X102291552Y-110624000D02*
X102291552Y-112127000D01*
X103332552Y-107462000D02*
X103332552Y-108544000D01*
X104452552Y-109300000D02*
X104452552Y-109868000D01*
X104012552Y-110624000D02*
X104012552Y-111027000D01*
X104412552Y-109066000D02*
X104412552Y-110102000D01*
X102812552Y-110624000D02*
X102812552Y-111982000D01*
X103692552Y-107758000D02*
X103692552Y-108544000D01*
X102732552Y-107156000D02*
X102732552Y-108544000D01*
X101931552Y-107005000D02*
X101931552Y-112163000D01*
X102211552Y-110624000D02*
X102211552Y-112140000D01*
X102972552Y-107255000D02*
X102972552Y-108544000D01*
X102612552Y-107116000D02*
X102612552Y-108544000D01*
X102131552Y-107019000D02*
X102131552Y-108544000D01*
X103532552Y-110624000D02*
X103532552Y-111555000D01*
X103132552Y-110624000D02*
X103132552Y-111831000D01*
X104012552Y-108141000D02*
X104012552Y-108544000D01*
X102131552Y-110624000D02*
X102131552Y-112149000D01*
X103812552Y-107885000D02*
X103812552Y-108544000D01*
X102411552Y-110624000D02*
X102411552Y-112104000D01*
X103932552Y-110624000D02*
X103932552Y-111138000D01*
X102411552Y-107064000D02*
X102411552Y-108544000D01*
X102892552Y-110624000D02*
X102892552Y-111949000D01*
X101851552Y-107004000D02*
X101851552Y-112164000D01*
X103372552Y-107489000D02*
X103372552Y-108544000D01*
X102451552Y-107073000D02*
X102451552Y-108544000D01*
X102852552Y-107202000D02*
X102852552Y-108544000D01*
X102331552Y-107048000D02*
X102331552Y-108544000D01*
X102531552Y-110624000D02*
X102531552Y-112075000D01*
X101971552Y-107006000D02*
X101971552Y-112162000D01*
X103012552Y-110624000D02*
X103012552Y-111894000D01*
X103092552Y-110624000D02*
X103092552Y-111852000D01*
X104132552Y-108333000D02*
X104132552Y-108544000D01*
X103452552Y-107549000D02*
X103452552Y-108544000D01*
X102732552Y-110624000D02*
X102732552Y-112012000D01*
X102652552Y-107129000D02*
X102652552Y-108544000D01*
X104092552Y-110624000D02*
X104092552Y-110903000D01*
X102932552Y-107236000D02*
X102932552Y-108544000D01*
X103852552Y-107931000D02*
X103852552Y-108544000D01*
X103652552Y-110624000D02*
X103652552Y-111448000D01*
X102331552Y-110624000D02*
X102331552Y-112120000D01*
X104092552Y-108265000D02*
X104092552Y-108544000D01*
X104172552Y-108406000D02*
X104172552Y-110762000D01*
X103772552Y-110624000D02*
X103772552Y-111327000D01*
X103812552Y-110624000D02*
X103812552Y-111283000D01*
X103852552Y-110624000D02*
X103852552Y-111237000D01*
X103972552Y-108084000D02*
X103972552Y-108544000D01*
X103292552Y-110624000D02*
X103292552Y-111733000D01*
X103732552Y-110624000D02*
X103732552Y-111369000D01*
X103132552Y-107337000D02*
X103132552Y-108544000D01*
X102051552Y-107011000D02*
X102051552Y-112157000D01*
X103172552Y-110624000D02*
X103172552Y-111808000D01*
X103652552Y-107720000D02*
X103652552Y-108544000D01*
X103572552Y-110624000D02*
X103572552Y-111521000D01*
X102692552Y-107142000D02*
X102692552Y-108544000D01*
X103892552Y-107979000D02*
X103892552Y-108544000D01*
X99296777Y-107859000D02*
X99296777Y-108359000D01*
X102692552Y-110624000D02*
X102692552Y-112026000D01*
X104212552Y-108486000D02*
X104212552Y-110682000D01*
X103932552Y-108030000D02*
X103932552Y-108544000D01*
X102932552Y-110624000D02*
X102932552Y-111932000D01*
X103412552Y-107519000D02*
X103412552Y-108544000D01*
X102171552Y-110624000D02*
X102171552Y-112145000D01*
X102011552Y-107008000D02*
X102011552Y-112160000D01*
X102091552Y-107015000D02*
X102091552Y-108544000D01*
X102251552Y-110624000D02*
X102251552Y-112134000D01*
X103332552Y-110624000D02*
X103332552Y-111706000D01*
X104332552Y-108779000D02*
X104332552Y-110389000D01*
X103292552Y-107435000D02*
X103292552Y-108544000D01*
X102371552Y-110624000D02*
X102371552Y-112112000D01*
X102572552Y-110624000D02*
X102572552Y-112064000D01*
X103212552Y-110624000D02*
X103212552Y-111784000D01*
X103412552Y-110624000D02*
X103412552Y-111649000D01*
X102291552Y-107041000D02*
X102291552Y-108544000D01*
X103052552Y-107294000D02*
X103052552Y-108544000D01*
X102772552Y-107170000D02*
X102772552Y-108544000D01*
X99046777Y-108109000D02*
X99546777Y-108109000D01*
X102211552Y-107028000D02*
X102211552Y-108544000D01*
X103212552Y-107384000D02*
X103212552Y-108544000D01*
X102491552Y-110624000D02*
X102491552Y-112085000D01*
X103492552Y-107580000D02*
X103492552Y-108544000D01*
X102451552Y-110624000D02*
X102451552Y-112095000D01*
X103092552Y-107316000D02*
X103092552Y-108544000D01*
X103772552Y-107841000D02*
X103772552Y-108544000D01*
X103572552Y-107647000D02*
X103572552Y-108544000D01*
X102812552Y-107186000D02*
X102812552Y-108544000D01*
X103972552Y-110624000D02*
X103972552Y-111084000D01*
X103892552Y-110624000D02*
X103892552Y-111189000D01*
X104052552Y-108201000D02*
X104052552Y-108544000D01*
X101891552Y-107004000D02*
X101891552Y-112164000D01*
X104471552Y-109584000D02*
G75*
G03*
X104471552Y-109584000I-2620000J0D01*
G01*
X79296000Y-100694000D02*
X78526000Y-100694000D01*
X78526000Y-102064000D02*
X78526000Y-99324000D01*
X71986000Y-102064000D02*
X78526000Y-102064000D01*
X71986000Y-99324000D02*
X71986000Y-102064000D01*
X78526000Y-99324000D02*
X71986000Y-99324000D01*
X71216000Y-100694000D02*
X71986000Y-100694000D01*
X117220000Y-84208000D02*
X117220000Y-79668000D01*
X117205000Y-79668000D02*
X117220000Y-79668000D01*
X117205000Y-84208000D02*
X117220000Y-84208000D01*
X115080000Y-79668000D02*
X115095000Y-79668000D01*
X115080000Y-84208000D02*
X115080000Y-79668000D01*
X115080000Y-84208000D02*
X115095000Y-84208000D01*
X92197000Y-73720000D02*
X94797000Y-73720000D01*
X89597000Y-73720000D02*
X89597000Y-72390000D01*
X92197000Y-73720000D02*
X92197000Y-71060000D01*
X92197000Y-71060000D02*
X94797000Y-71060000D01*
X94797000Y-73720000D02*
X94797000Y-71060000D01*
X90927000Y-73720000D02*
X89597000Y-73720000D01*
X107260000Y-106560000D02*
X107260000Y-107330000D01*
X108630000Y-107330000D02*
X105890000Y-107330000D01*
X108630000Y-113870000D02*
X108630000Y-107330000D01*
X105890000Y-113870000D02*
X108630000Y-113870000D01*
X107260000Y-114640000D02*
X107260000Y-113870000D01*
X105890000Y-107330000D02*
X105890000Y-113870000D01*
X68879688Y-98192311D02*
X71539688Y-98192311D01*
X68879688Y-95592311D02*
X70209688Y-95592311D01*
X68879688Y-98192311D02*
X68879688Y-98252311D01*
X68879688Y-96922311D02*
X68879688Y-95592311D01*
X68879688Y-98252311D02*
X71539688Y-98252311D01*
X71539688Y-98192311D02*
X71539688Y-98252311D01*
X111793000Y-92836000D02*
X111778000Y-92836000D01*
X113918000Y-92836000D02*
X113918000Y-97376000D01*
X111793000Y-97376000D02*
X111778000Y-97376000D01*
X113918000Y-92836000D02*
X113903000Y-92836000D01*
X113918000Y-97376000D02*
X113903000Y-97376000D01*
X111778000Y-92836000D02*
X111778000Y-97376000D01*
X110308000Y-117458000D02*
X110308000Y-102218000D01*
X117928000Y-117458000D02*
X117928000Y-102218000D01*
X117928000Y-117458000D02*
X110308000Y-117458000D01*
X117928000Y-102218000D02*
X110308000Y-102218000D01*
X116658000Y-117458000D02*
X116658000Y-102218000D01*
X115080000Y-92296000D02*
X115080000Y-87756000D01*
X115080000Y-92296000D02*
X115095000Y-92296000D01*
X117205000Y-92296000D02*
X117220000Y-92296000D01*
X115080000Y-87756000D02*
X115095000Y-87756000D01*
X117205000Y-87756000D02*
X117220000Y-87756000D01*
X117220000Y-92296000D02*
X117220000Y-87756000D01*
X87734000Y-128988000D02*
X94274000Y-128988000D01*
X86964000Y-127618000D02*
X87734000Y-127618000D01*
X95044000Y-127618000D02*
X94274000Y-127618000D01*
X94274000Y-126248000D02*
X87734000Y-126248000D01*
X94274000Y-128988000D02*
X94274000Y-126248000D01*
X87734000Y-126248000D02*
X87734000Y-128988000D01*
X77742000Y-93820000D02*
X77742000Y-89280000D01*
X77742000Y-93820000D02*
X77757000Y-93820000D01*
X79867000Y-89280000D02*
X79882000Y-89280000D01*
X77742000Y-89280000D02*
X77757000Y-89280000D01*
X79882000Y-93820000D02*
X79882000Y-89280000D01*
X79867000Y-93820000D02*
X79882000Y-93820000D01*
X70962000Y-120760000D02*
X71732000Y-120760000D01*
X79042000Y-120760000D02*
X78272000Y-120760000D01*
X78272000Y-119390000D02*
X71732000Y-119390000D01*
X71732000Y-119390000D02*
X71732000Y-122130000D01*
X78272000Y-122130000D02*
X78272000Y-119390000D01*
X71732000Y-122130000D02*
X78272000Y-122130000D01*
X107668000Y-83898000D02*
X110408000Y-83898000D01*
X109038000Y-76588000D02*
X109038000Y-77358000D01*
X107668000Y-77358000D02*
X107668000Y-83898000D01*
X109038000Y-84668000D02*
X109038000Y-83898000D01*
X110408000Y-83898000D02*
X110408000Y-77358000D01*
X110408000Y-77358000D02*
X107668000Y-77358000D01*
X79042000Y-83676000D02*
X78272000Y-83676000D01*
X78272000Y-85046000D02*
X78272000Y-82306000D01*
X78272000Y-82306000D02*
X71732000Y-82306000D01*
X71732000Y-85046000D02*
X78272000Y-85046000D01*
X71732000Y-82306000D02*
X71732000Y-85046000D01*
X70962000Y-83676000D02*
X71732000Y-83676000D01*
X86780000Y-120890000D02*
X97280000Y-120890000D01*
X89780000Y-110550000D02*
X89780000Y-120830000D01*
X94280000Y-120830000D02*
X94280000Y-110550000D01*
X89780000Y-120830000D02*
X94280000Y-120830000D01*
X97280000Y-120890000D02*
X97280000Y-110490000D01*
X97280000Y-110490000D02*
X86780000Y-110490000D01*
X86780000Y-110490000D02*
X86780000Y-120890000D01*
X91030000Y-110550000D02*
X89780000Y-110550000D01*
X94280000Y-110550000D02*
X93030000Y-110550000D01*
X91030000Y-110550000D02*
G75*
G03*
X93030000Y-110550000I1000000J0D01*
G01*
X97068000Y-74940000D02*
X90528000Y-74940000D01*
X97838000Y-76310000D02*
X97068000Y-76310000D01*
X89758000Y-76310000D02*
X90528000Y-76310000D01*
X97068000Y-77680000D02*
X97068000Y-74940000D01*
X90528000Y-77680000D02*
X97068000Y-77680000D01*
X90528000Y-74940000D02*
X90528000Y-77680000D01*
X107482000Y-70876000D02*
X100942000Y-70876000D01*
X107482000Y-73616000D02*
X107482000Y-70876000D01*
X108252000Y-72246000D02*
X107482000Y-72246000D01*
X100942000Y-70876000D02*
X100942000Y-73616000D01*
X100942000Y-73616000D02*
X107482000Y-73616000D01*
X100172000Y-72246000D02*
X100942000Y-72246000D01*
X76526000Y-117966000D02*
X68906000Y-117966000D01*
X76526000Y-117966000D02*
X76526000Y-102726000D01*
X68906000Y-117966000D02*
X68906000Y-102726000D01*
X75256000Y-117966000D02*
X75256000Y-102726000D01*
X76526000Y-102726000D02*
X68906000Y-102726000D01*
X88754000Y-79044000D02*
X88754000Y-99484000D01*
X88754000Y-99484000D02*
X93254000Y-99484000D01*
X90004000Y-79044000D02*
X88754000Y-79044000D01*
X96254000Y-78984000D02*
X85754000Y-78984000D01*
X93254000Y-99484000D02*
X93254000Y-79044000D01*
X96254000Y-99544000D02*
X96254000Y-78984000D01*
X85754000Y-78984000D02*
X85754000Y-99544000D01*
X93254000Y-79044000D02*
X92004000Y-79044000D01*
X85754000Y-99544000D02*
X96254000Y-99544000D01*
X90004000Y-79044000D02*
G75*
G03*
X92004000Y-79044000I1000000J0D01*
G01*
X108533888Y-127642000D02*
X108533888Y-129082000D01*
X110413888Y-126318000D02*
X110413888Y-126886000D01*
X108893888Y-124254000D02*
X108893888Y-125562000D01*
X109253888Y-124453000D02*
X109253888Y-125562000D01*
X109213888Y-124427000D02*
X109213888Y-125562000D01*
X109773888Y-127642000D02*
X109773888Y-128301000D01*
X109853888Y-127642000D02*
X109853888Y-128207000D01*
X108012888Y-124029000D02*
X108012888Y-129175000D01*
X109573888Y-127642000D02*
X109573888Y-128503000D01*
X108052888Y-124033000D02*
X108052888Y-125562000D01*
X110013888Y-127642000D02*
X110013888Y-127985000D01*
X108052888Y-127642000D02*
X108052888Y-129171000D01*
X108332888Y-124074000D02*
X108332888Y-125562000D01*
X109693888Y-124817000D02*
X109693888Y-125562000D01*
X109773888Y-124903000D02*
X109773888Y-125562000D01*
X109133888Y-124378000D02*
X109133888Y-125562000D01*
X108853888Y-124237000D02*
X108853888Y-125562000D01*
X108973888Y-127642000D02*
X108973888Y-128912000D01*
X109013888Y-127642000D02*
X109013888Y-128892000D01*
X109613888Y-124738000D02*
X109613888Y-125562000D01*
X108693888Y-124174000D02*
X108693888Y-125562000D01*
X108613888Y-124147000D02*
X108613888Y-125562000D01*
X108092888Y-124037000D02*
X108092888Y-125562000D01*
X108653888Y-124160000D02*
X108653888Y-125562000D01*
X108733888Y-127642000D02*
X108733888Y-129016000D01*
X109173888Y-124402000D02*
X109173888Y-125562000D01*
X109293888Y-124480000D02*
X109293888Y-125562000D01*
X109493888Y-124631000D02*
X109493888Y-125562000D01*
X108452888Y-127642000D02*
X108452888Y-129103000D01*
X108172888Y-124046000D02*
X108172888Y-125562000D01*
X107892888Y-124023000D02*
X107892888Y-129181000D01*
X107812888Y-124022000D02*
X107812888Y-129182000D01*
X109813888Y-124949000D02*
X109813888Y-125562000D01*
X109093888Y-124355000D02*
X109093888Y-125562000D01*
X108853888Y-127642000D02*
X108853888Y-128967000D01*
X108653888Y-127642000D02*
X108653888Y-129044000D01*
X109733888Y-127642000D02*
X109733888Y-128345000D01*
X108332888Y-127642000D02*
X108332888Y-129130000D01*
X108973888Y-124292000D02*
X108973888Y-125562000D01*
X105258113Y-124877000D02*
X105258113Y-125377000D01*
X110013888Y-125219000D02*
X110013888Y-125562000D01*
X109173888Y-127642000D02*
X109173888Y-128802000D01*
X109213888Y-127642000D02*
X109213888Y-128777000D01*
X108132888Y-127642000D02*
X108132888Y-129163000D01*
X110293888Y-125797000D02*
X110293888Y-127407000D01*
X110213888Y-125591000D02*
X110213888Y-127613000D01*
X109453888Y-127642000D02*
X109453888Y-128606000D01*
X110093888Y-125351000D02*
X110093888Y-125562000D01*
X105008113Y-125127000D02*
X105508113Y-125127000D01*
X109453888Y-124598000D02*
X109453888Y-125562000D01*
X108813888Y-127642000D02*
X108813888Y-128984000D01*
X108492888Y-127642000D02*
X108492888Y-129093000D01*
X109053888Y-127642000D02*
X109053888Y-128870000D01*
X109533888Y-124665000D02*
X109533888Y-125562000D01*
X108773888Y-124204000D02*
X108773888Y-125562000D01*
X109613888Y-127642000D02*
X109613888Y-128466000D01*
X108773888Y-127642000D02*
X108773888Y-129000000D01*
X109413888Y-124567000D02*
X109413888Y-125562000D01*
X107972888Y-124026000D02*
X107972888Y-129178000D01*
X107932888Y-124024000D02*
X107932888Y-129180000D01*
X107852888Y-124022000D02*
X107852888Y-129182000D01*
X109053888Y-124334000D02*
X109053888Y-125562000D01*
X110333888Y-125925000D02*
X110333888Y-127279000D01*
X108092888Y-127642000D02*
X108092888Y-129167000D01*
X108252888Y-127642000D02*
X108252888Y-129145000D01*
X108893888Y-127642000D02*
X108893888Y-128950000D01*
X108733888Y-124188000D02*
X108733888Y-125562000D01*
X108212888Y-124052000D02*
X108212888Y-125562000D01*
X109573888Y-124701000D02*
X109573888Y-125562000D01*
X108412888Y-124091000D02*
X108412888Y-125562000D01*
X109653888Y-124776000D02*
X109653888Y-125562000D01*
X108412888Y-127642000D02*
X108412888Y-129113000D01*
X110373888Y-126084000D02*
X110373888Y-127120000D01*
X109933888Y-127642000D02*
X109933888Y-128102000D01*
X110053888Y-127642000D02*
X110053888Y-127921000D01*
X109373888Y-124537000D02*
X109373888Y-125562000D01*
X109493888Y-127642000D02*
X109493888Y-128573000D01*
X108292888Y-127642000D02*
X108292888Y-129138000D01*
X108452888Y-124101000D02*
X108452888Y-125562000D01*
X108933888Y-124273000D02*
X108933888Y-125562000D01*
X110053888Y-125283000D02*
X110053888Y-125562000D01*
X109133888Y-127642000D02*
X109133888Y-128826000D01*
X109933888Y-125102000D02*
X109933888Y-125562000D01*
X109373888Y-127642000D02*
X109373888Y-128667000D01*
X108372888Y-127642000D02*
X108372888Y-129122000D01*
X108292888Y-124066000D02*
X108292888Y-125562000D01*
X108693888Y-127642000D02*
X108693888Y-129030000D01*
X109733888Y-124859000D02*
X109733888Y-125562000D01*
X108813888Y-124220000D02*
X108813888Y-125562000D01*
X109293888Y-127642000D02*
X109293888Y-128724000D01*
X110093888Y-127642000D02*
X110093888Y-127853000D01*
X109973888Y-125159000D02*
X109973888Y-125562000D01*
X110253888Y-125687000D02*
X110253888Y-127517000D01*
X110173888Y-125504000D02*
X110173888Y-127700000D01*
X109333888Y-127642000D02*
X109333888Y-128697000D01*
X108613888Y-127642000D02*
X108613888Y-129057000D01*
X109853888Y-124997000D02*
X109853888Y-125562000D01*
X108212888Y-127642000D02*
X108212888Y-129152000D01*
X109093888Y-127642000D02*
X109093888Y-128849000D01*
X109533888Y-127642000D02*
X109533888Y-128539000D01*
X108573888Y-127642000D02*
X108573888Y-129070000D01*
X109653888Y-127642000D02*
X109653888Y-128428000D01*
X109893888Y-127642000D02*
X109893888Y-128156000D01*
X108252888Y-124059000D02*
X108252888Y-125562000D01*
X108933888Y-127642000D02*
X108933888Y-128931000D01*
X108533888Y-124122000D02*
X108533888Y-125562000D01*
X109973888Y-127642000D02*
X109973888Y-128045000D01*
X109813888Y-127642000D02*
X109813888Y-128255000D01*
X108132888Y-124041000D02*
X108132888Y-125562000D01*
X109013888Y-124312000D02*
X109013888Y-125562000D01*
X109253888Y-127642000D02*
X109253888Y-128751000D01*
X108372888Y-124082000D02*
X108372888Y-125562000D01*
X109413888Y-127642000D02*
X109413888Y-128637000D01*
X109693888Y-127642000D02*
X109693888Y-128387000D01*
X108492888Y-124111000D02*
X108492888Y-125562000D01*
X109333888Y-124507000D02*
X109333888Y-125562000D01*
X109893888Y-125048000D02*
X109893888Y-125562000D01*
X110133888Y-125424000D02*
X110133888Y-127780000D01*
X108172888Y-127642000D02*
X108172888Y-129158000D01*
X108573888Y-124134000D02*
X108573888Y-125562000D01*
X110432888Y-126602000D02*
G75*
G03*
X110432888Y-126602000I-2620000J0D01*
G01*
X87980000Y-107044000D02*
X88750000Y-107044000D01*
X88750000Y-108414000D02*
X95290000Y-108414000D01*
X88750000Y-105674000D02*
X88750000Y-108414000D01*
X95290000Y-105674000D02*
X88750000Y-105674000D01*
X96060000Y-107044000D02*
X95290000Y-107044000D01*
X95290000Y-108414000D02*
X95290000Y-105674000D01*
X83130000Y-118704000D02*
X83130000Y-117934000D01*
X83130000Y-110624000D02*
X83130000Y-111394000D01*
X81760000Y-117934000D02*
X84500000Y-117934000D01*
X84500000Y-117934000D02*
X84500000Y-111394000D01*
X81760000Y-111394000D02*
X81760000Y-117934000D01*
X84500000Y-111394000D02*
X81760000Y-111394000D01*
X109038000Y-98384000D02*
X109038000Y-97614000D01*
X110408000Y-91074000D02*
X107668000Y-91074000D01*
X107668000Y-97614000D02*
X110408000Y-97614000D01*
X110408000Y-97614000D02*
X110408000Y-91074000D01*
X109038000Y-90304000D02*
X109038000Y-91074000D01*
X107668000Y-91074000D02*
X107668000Y-97614000D01*
X83114000Y-96322000D02*
X83114000Y-96337000D01*
X78574000Y-96322000D02*
X83114000Y-96322000D01*
X78574000Y-98447000D02*
X78574000Y-98462000D01*
X83114000Y-98447000D02*
X83114000Y-98462000D01*
X78574000Y-96322000D02*
X78574000Y-96337000D01*
X78574000Y-98462000D02*
X83114000Y-98462000D01*
X108816000Y-121622000D02*
X115356000Y-121622000D01*
X115356000Y-118882000D02*
X108816000Y-118882000D01*
X108816000Y-118882000D02*
X108816000Y-121622000D01*
X108046000Y-120252000D02*
X108816000Y-120252000D01*
X116126000Y-120252000D02*
X115356000Y-120252000D01*
X115356000Y-121622000D02*
X115356000Y-118882000D01*
X79698888Y-79104000D02*
G75*
G03*
X79698888Y-79104000I-2620000J0D01*
G01*
X77438888Y-76548000D02*
X77438888Y-78064000D01*
X77879888Y-80144000D02*
X77879888Y-81559000D01*
X79439888Y-78006000D02*
X79439888Y-80202000D01*
X77879888Y-76649000D02*
X77879888Y-78064000D01*
X78119888Y-76739000D02*
X78119888Y-78064000D01*
X78959888Y-77319000D02*
X78959888Y-78064000D01*
X78199888Y-76775000D02*
X78199888Y-78064000D01*
X78679888Y-80144000D02*
X78679888Y-81139000D01*
X79279888Y-80144000D02*
X79279888Y-80487000D01*
X78359888Y-80144000D02*
X78359888Y-81351000D01*
X78479888Y-80144000D02*
X78479888Y-81279000D01*
X77959888Y-76676000D02*
X77959888Y-78064000D01*
X79359888Y-77853000D02*
X79359888Y-78064000D01*
X78479888Y-76929000D02*
X78479888Y-78064000D01*
X79119888Y-80144000D02*
X79119888Y-80709000D01*
X78959888Y-80144000D02*
X78959888Y-80889000D01*
X78039888Y-76706000D02*
X78039888Y-78064000D01*
X78639888Y-77039000D02*
X78639888Y-78064000D01*
X78079888Y-80144000D02*
X78079888Y-81486000D01*
X77718888Y-76603000D02*
X77718888Y-78064000D01*
X77839888Y-80144000D02*
X77839888Y-81572000D01*
X79079888Y-80144000D02*
X79079888Y-80757000D01*
X78799888Y-80144000D02*
X78799888Y-81041000D01*
X79319888Y-80144000D02*
X79319888Y-80423000D01*
X77678888Y-76593000D02*
X77678888Y-78064000D01*
X77999888Y-80144000D02*
X77999888Y-81518000D01*
X78719888Y-77100000D02*
X78719888Y-78064000D01*
X78799888Y-77167000D02*
X78799888Y-78064000D01*
X78639888Y-80144000D02*
X78639888Y-81169000D01*
X78519888Y-80144000D02*
X78519888Y-81253000D01*
X79679888Y-78820000D02*
X79679888Y-79388000D01*
X78159888Y-80144000D02*
X78159888Y-81452000D01*
X78559888Y-76982000D02*
X78559888Y-78064000D01*
X78919888Y-80144000D02*
X78919888Y-80930000D01*
X77398888Y-76543000D02*
X77398888Y-78064000D01*
X77598888Y-76576000D02*
X77598888Y-78064000D01*
X79159888Y-80144000D02*
X79159888Y-80658000D01*
X79199888Y-77604000D02*
X79199888Y-78064000D01*
X77118888Y-76524000D02*
X77118888Y-81684000D01*
X77638888Y-80144000D02*
X77638888Y-81624000D01*
X77398888Y-80144000D02*
X77398888Y-81665000D01*
X78879888Y-80144000D02*
X78879888Y-80968000D01*
X78719888Y-80144000D02*
X78719888Y-81108000D01*
X77158888Y-76525000D02*
X77158888Y-81683000D01*
X79279888Y-77721000D02*
X79279888Y-78064000D01*
X78039888Y-80144000D02*
X78039888Y-81502000D01*
X77799888Y-80144000D02*
X77799888Y-81584000D01*
X77959888Y-80144000D02*
X77959888Y-81532000D01*
X74524113Y-77379000D02*
X74524113Y-77879000D01*
X78879888Y-77240000D02*
X78879888Y-78064000D01*
X78279888Y-80144000D02*
X78279888Y-81394000D01*
X79239888Y-77661000D02*
X79239888Y-78064000D01*
X77238888Y-76528000D02*
X77238888Y-81680000D01*
X78439888Y-76904000D02*
X78439888Y-78064000D01*
X79119888Y-77499000D02*
X79119888Y-78064000D01*
X77438888Y-80144000D02*
X77438888Y-81660000D01*
X77598888Y-80144000D02*
X77598888Y-81632000D01*
X77518888Y-80144000D02*
X77518888Y-81647000D01*
X77799888Y-76624000D02*
X77799888Y-78064000D01*
X77318888Y-76535000D02*
X77318888Y-78064000D01*
X77478888Y-80144000D02*
X77478888Y-81654000D01*
X77758888Y-80144000D02*
X77758888Y-81595000D01*
X78599888Y-77009000D02*
X78599888Y-78064000D01*
X77718888Y-80144000D02*
X77718888Y-81605000D01*
X77358888Y-80144000D02*
X77358888Y-81669000D01*
X78159888Y-76756000D02*
X78159888Y-78064000D01*
X79559888Y-78299000D02*
X79559888Y-79909000D01*
X78319888Y-80144000D02*
X78319888Y-81372000D01*
X74274113Y-77629000D02*
X74774113Y-77629000D01*
X79519888Y-78189000D02*
X79519888Y-80019000D01*
X78519888Y-76955000D02*
X78519888Y-78064000D01*
X77478888Y-76554000D02*
X77478888Y-78064000D01*
X77518888Y-76561000D02*
X77518888Y-78064000D01*
X78439888Y-80144000D02*
X78439888Y-81304000D01*
X79399888Y-77926000D02*
X79399888Y-80282000D01*
X78119888Y-80144000D02*
X78119888Y-81469000D01*
X77198888Y-76526000D02*
X77198888Y-81682000D01*
X79479888Y-78093000D02*
X79479888Y-80115000D01*
X79199888Y-80144000D02*
X79199888Y-80604000D01*
X78839888Y-77203000D02*
X78839888Y-78064000D01*
X79359888Y-80144000D02*
X79359888Y-80355000D01*
X79599888Y-78427000D02*
X79599888Y-79781000D01*
X78239888Y-80144000D02*
X78239888Y-81414000D01*
X77318888Y-80144000D02*
X77318888Y-81673000D01*
X79039888Y-77405000D02*
X79039888Y-78064000D01*
X79639888Y-78586000D02*
X79639888Y-79622000D01*
X77558888Y-76568000D02*
X77558888Y-78064000D01*
X77278888Y-76531000D02*
X77278888Y-81677000D01*
X78759888Y-80144000D02*
X78759888Y-81075000D01*
X78399888Y-80144000D02*
X78399888Y-81328000D01*
X79159888Y-77550000D02*
X79159888Y-78064000D01*
X78599888Y-80144000D02*
X78599888Y-81199000D01*
X79319888Y-77785000D02*
X79319888Y-78064000D01*
X79239888Y-80144000D02*
X79239888Y-80547000D01*
X77999888Y-76690000D02*
X77999888Y-78064000D01*
X77078888Y-76524000D02*
X77078888Y-81684000D01*
X78079888Y-76722000D02*
X78079888Y-78064000D01*
X79039888Y-80144000D02*
X79039888Y-80803000D01*
X79079888Y-77451000D02*
X79079888Y-78064000D01*
X78399888Y-76880000D02*
X78399888Y-78064000D01*
X77919888Y-76662000D02*
X77919888Y-78064000D01*
X77839888Y-76636000D02*
X77839888Y-78064000D01*
X77678888Y-80144000D02*
X77678888Y-81615000D01*
X77558888Y-80144000D02*
X77558888Y-81640000D01*
X78279888Y-76814000D02*
X78279888Y-78064000D01*
X78199888Y-80144000D02*
X78199888Y-81433000D01*
X78919888Y-77278000D02*
X78919888Y-78064000D01*
X78679888Y-77069000D02*
X78679888Y-78064000D01*
X77758888Y-76613000D02*
X77758888Y-78064000D01*
X77919888Y-80144000D02*
X77919888Y-81546000D01*
X77358888Y-76539000D02*
X77358888Y-78064000D01*
X78359888Y-76857000D02*
X78359888Y-78064000D01*
X78759888Y-77133000D02*
X78759888Y-78064000D01*
X78319888Y-76836000D02*
X78319888Y-78064000D01*
X78999888Y-80144000D02*
X78999888Y-80847000D01*
X78239888Y-76794000D02*
X78239888Y-78064000D01*
X78839888Y-80144000D02*
X78839888Y-81005000D01*
X78559888Y-80144000D02*
X78559888Y-81226000D01*
X78999888Y-77361000D02*
X78999888Y-78064000D01*
X77638888Y-76584000D02*
X77638888Y-78064000D01*
X103396000Y-118490000D02*
X103396000Y-123030000D01*
X103411000Y-118490000D02*
X103396000Y-118490000D01*
X103411000Y-123030000D02*
X103396000Y-123030000D01*
X105536000Y-118490000D02*
X105536000Y-123030000D01*
X105536000Y-123030000D02*
X105521000Y-123030000D01*
X105536000Y-118490000D02*
X105521000Y-118490000D01*
X79817888Y-124458000D02*
X79817888Y-125816000D01*
X79536888Y-127896000D02*
X79536888Y-129347000D01*
X79697888Y-127896000D02*
X79697888Y-129298000D01*
X78856888Y-124276000D02*
X78856888Y-129436000D01*
X80737888Y-125071000D02*
X80737888Y-125816000D01*
X80777888Y-125113000D02*
X80777888Y-125816000D01*
X79977888Y-124527000D02*
X79977888Y-125816000D01*
X76052113Y-125381000D02*
X76552113Y-125381000D01*
X80177888Y-127896000D02*
X80177888Y-129080000D01*
X80817888Y-127896000D02*
X80817888Y-128555000D01*
X80697888Y-127896000D02*
X80697888Y-128682000D01*
X79577888Y-124376000D02*
X79577888Y-125816000D01*
X80657888Y-127896000D02*
X80657888Y-128720000D01*
X80297888Y-124707000D02*
X80297888Y-125816000D01*
X81097888Y-125537000D02*
X81097888Y-125816000D01*
X80617888Y-127896000D02*
X80617888Y-128757000D01*
X80417888Y-127896000D02*
X80417888Y-128921000D01*
X79336888Y-124320000D02*
X79336888Y-125816000D01*
X80057888Y-127896000D02*
X80057888Y-129146000D01*
X80017888Y-127896000D02*
X80017888Y-129166000D01*
X79456888Y-124345000D02*
X79456888Y-125816000D01*
X80217888Y-124656000D02*
X80217888Y-125816000D01*
X79857888Y-127896000D02*
X79857888Y-129238000D01*
X80937888Y-127896000D02*
X80937888Y-128410000D01*
X80377888Y-127896000D02*
X80377888Y-128951000D01*
X79777888Y-127896000D02*
X79777888Y-129270000D01*
X79617888Y-127896000D02*
X79617888Y-129324000D01*
X79416888Y-124336000D02*
X79416888Y-125816000D01*
X79176888Y-127896000D02*
X79176888Y-129417000D01*
X81057888Y-125473000D02*
X81057888Y-125816000D01*
X80857888Y-127896000D02*
X80857888Y-128509000D01*
X80697888Y-125030000D02*
X80697888Y-125816000D01*
X80817888Y-125157000D02*
X80817888Y-125816000D01*
X79296888Y-124313000D02*
X79296888Y-125816000D01*
X80497888Y-124852000D02*
X80497888Y-125816000D01*
X80377888Y-124761000D02*
X80377888Y-125816000D01*
X79096888Y-127896000D02*
X79096888Y-129425000D01*
X79256888Y-127896000D02*
X79256888Y-129406000D01*
X79216888Y-127896000D02*
X79216888Y-129412000D01*
X80417888Y-124791000D02*
X80417888Y-125816000D01*
X78936888Y-124277000D02*
X78936888Y-129435000D01*
X79897888Y-127896000D02*
X79897888Y-129221000D01*
X81137888Y-127896000D02*
X81137888Y-128107000D01*
X79056888Y-124283000D02*
X79056888Y-129429000D01*
X81337888Y-126051000D02*
X81337888Y-127661000D01*
X80337888Y-124734000D02*
X80337888Y-125816000D01*
X79496888Y-124355000D02*
X79496888Y-125816000D01*
X79777888Y-124442000D02*
X79777888Y-125816000D01*
X79817888Y-127896000D02*
X79817888Y-129254000D01*
X80977888Y-125356000D02*
X80977888Y-125816000D01*
X79096888Y-124287000D02*
X79096888Y-125816000D01*
X79016888Y-124280000D02*
X79016888Y-129432000D01*
X79136888Y-124291000D02*
X79136888Y-125816000D01*
X80617888Y-124955000D02*
X80617888Y-125816000D01*
X79617888Y-124388000D02*
X79617888Y-125816000D01*
X80217888Y-127896000D02*
X80217888Y-129056000D01*
X81137888Y-125605000D02*
X81137888Y-125816000D01*
X80137888Y-127896000D02*
X80137888Y-129103000D01*
X79697888Y-124414000D02*
X79697888Y-125816000D01*
X81057888Y-127896000D02*
X81057888Y-128239000D01*
X78976888Y-124278000D02*
X78976888Y-129434000D01*
X79416888Y-127896000D02*
X79416888Y-129376000D01*
X81017888Y-127896000D02*
X81017888Y-128299000D01*
X80097888Y-124588000D02*
X80097888Y-125816000D01*
X81097888Y-127896000D02*
X81097888Y-128175000D01*
X80897888Y-127896000D02*
X80897888Y-128461000D01*
X80177888Y-124632000D02*
X80177888Y-125816000D01*
X80017888Y-124546000D02*
X80017888Y-125816000D01*
X81457888Y-126572000D02*
X81457888Y-127140000D01*
X79937888Y-127896000D02*
X79937888Y-129204000D01*
X79657888Y-127896000D02*
X79657888Y-129311000D01*
X81177888Y-125678000D02*
X81177888Y-128034000D01*
X79657888Y-124401000D02*
X79657888Y-125816000D01*
X79937888Y-124508000D02*
X79937888Y-125816000D01*
X80537888Y-127896000D02*
X80537888Y-128827000D01*
X80897888Y-125251000D02*
X80897888Y-125816000D01*
X76302113Y-125131000D02*
X76302113Y-125631000D01*
X79216888Y-124300000D02*
X79216888Y-125816000D01*
X79857888Y-124474000D02*
X79857888Y-125816000D01*
X81297888Y-125941000D02*
X81297888Y-127771000D01*
X80577888Y-127896000D02*
X80577888Y-128793000D01*
X80337888Y-127896000D02*
X80337888Y-128978000D01*
X80937888Y-125302000D02*
X80937888Y-125816000D01*
X79376888Y-127896000D02*
X79376888Y-129384000D01*
X79737888Y-127896000D02*
X79737888Y-129284000D01*
X80577888Y-124919000D02*
X80577888Y-125816000D01*
X81417888Y-126338000D02*
X81417888Y-127374000D01*
X79376888Y-124328000D02*
X79376888Y-125816000D01*
X80057888Y-124566000D02*
X80057888Y-125816000D01*
X81017888Y-125413000D02*
X81017888Y-125816000D01*
X80257888Y-124681000D02*
X80257888Y-125816000D01*
X79136888Y-127896000D02*
X79136888Y-129421000D01*
X81377888Y-126179000D02*
X81377888Y-127533000D01*
X80657888Y-124992000D02*
X80657888Y-125816000D01*
X79176888Y-124295000D02*
X79176888Y-125816000D01*
X80297888Y-127896000D02*
X80297888Y-129005000D01*
X80737888Y-127896000D02*
X80737888Y-128641000D01*
X78896888Y-124276000D02*
X78896888Y-129436000D01*
X79456888Y-127896000D02*
X79456888Y-129367000D01*
X79336888Y-127896000D02*
X79336888Y-129392000D01*
X79897888Y-124491000D02*
X79897888Y-125816000D01*
X79256888Y-124306000D02*
X79256888Y-125816000D01*
X80537888Y-124885000D02*
X80537888Y-125816000D01*
X80457888Y-124821000D02*
X80457888Y-125816000D01*
X80457888Y-127896000D02*
X80457888Y-128891000D01*
X81217888Y-125758000D02*
X81217888Y-127954000D01*
X79737888Y-124428000D02*
X79737888Y-125816000D01*
X80497888Y-127896000D02*
X80497888Y-128860000D01*
X79977888Y-127896000D02*
X79977888Y-129185000D01*
X80097888Y-127896000D02*
X80097888Y-129124000D01*
X79296888Y-127896000D02*
X79296888Y-129399000D01*
X79536888Y-124365000D02*
X79536888Y-125816000D01*
X80777888Y-127896000D02*
X80777888Y-128599000D01*
X80257888Y-127896000D02*
X80257888Y-129031000D01*
X80137888Y-124609000D02*
X80137888Y-125816000D01*
X80977888Y-127896000D02*
X80977888Y-128356000D01*
X81257888Y-125845000D02*
X81257888Y-127867000D01*
X79577888Y-127896000D02*
X79577888Y-129336000D01*
X79496888Y-127896000D02*
X79496888Y-129357000D01*
X80857888Y-125203000D02*
X80857888Y-125816000D01*
X81476888Y-126856000D02*
G75*
G03*
X81476888Y-126856000I-2620000J0D01*
G01*
X96362000Y-101964000D02*
X97132000Y-101964000D01*
X104442000Y-101964000D02*
X103672000Y-101964000D01*
X103672000Y-103334000D02*
X103672000Y-100594000D01*
X97132000Y-100594000D02*
X97132000Y-103334000D01*
X103672000Y-100594000D02*
X97132000Y-100594000D01*
X97132000Y-103334000D02*
X103672000Y-103334000D01*
X106288000Y-89838000D02*
X106273000Y-89838000D01*
X104148000Y-89838000D02*
X104148000Y-94378000D01*
X106288000Y-89838000D02*
X106288000Y-94378000D01*
X106288000Y-94378000D02*
X106273000Y-94378000D01*
X104163000Y-94378000D02*
X104148000Y-94378000D01*
X104163000Y-89838000D02*
X104148000Y-89838000D01*
X103759000Y-129202000D02*
X103759000Y-126542000D01*
X98559000Y-129202000D02*
X98559000Y-127872000D01*
X101159000Y-126542000D02*
X103759000Y-126542000D01*
X101159000Y-129202000D02*
X101159000Y-126542000D01*
X99889000Y-129202000D02*
X98559000Y-129202000D01*
X101159000Y-129202000D02*
X103759000Y-129202000D01*
X83169000Y-89280000D02*
X83184000Y-89280000D01*
X83169000Y-93820000D02*
X83184000Y-93820000D01*
X81044000Y-89280000D02*
X81059000Y-89280000D01*
X81044000Y-93820000D02*
X81059000Y-93820000D01*
X81044000Y-93820000D02*
X81044000Y-89280000D01*
X83184000Y-93820000D02*
X83184000Y-89280000D01*
X92842000Y-103234000D02*
X92842000Y-103294000D01*
X90182000Y-101964000D02*
X90182000Y-100634000D01*
X90182000Y-103294000D02*
X92842000Y-103294000D01*
X90182000Y-103234000D02*
X90182000Y-103294000D01*
X90182000Y-100634000D02*
X91512000Y-100634000D01*
X90182000Y-103234000D02*
X92842000Y-103234000D01*
X99684000Y-84940000D02*
X99669000Y-84940000D01*
X97559000Y-84940000D02*
X97544000Y-84940000D01*
X97544000Y-80400000D02*
X97544000Y-84940000D01*
X99684000Y-80400000D02*
X99684000Y-84940000D01*
X97559000Y-80400000D02*
X97544000Y-80400000D01*
X99684000Y-80400000D02*
X99669000Y-80400000D01*
X68852000Y-86994000D02*
X68867000Y-86994000D01*
X68852000Y-91534000D02*
X68867000Y-91534000D01*
X70977000Y-91534000D02*
X70992000Y-91534000D01*
X70992000Y-91534000D02*
X70992000Y-86994000D01*
X70977000Y-86994000D02*
X70992000Y-86994000D01*
X68852000Y-91534000D02*
X68852000Y-86994000D01*
X77696000Y-116156000D02*
X80436000Y-116156000D01*
X79066000Y-108846000D02*
X79066000Y-109616000D01*
X79066000Y-116926000D02*
X79066000Y-116156000D01*
X80436000Y-116156000D02*
X80436000Y-109616000D01*
X77696000Y-109616000D02*
X77696000Y-116156000D01*
X80436000Y-109616000D02*
X77696000Y-109616000D01*
M02*
