M48
INCH,TZ
T1C0.0295
T2C0.0315
T3C0.0394
T4C0.0598
T5C0.1260
%
G90
G05
T1
X31928Y-28985
X32428Y-28985
X32928Y-28985
T2
X27528Y-32943
X27528Y-34159
X27528Y-36128
X27528Y-47543
X27628Y-39643
X29328Y-34243
X29328Y-38243
X29854Y-31143
X30554Y-49943
X30838Y-31143
X30844Y-38343
X31028Y-35059
X31028Y-37028
X31128Y-42443
X31128Y-46443
X31528Y-32943
X31528Y-47543
X31538Y-49943
X31628Y-39643
X32328Y-35059
X32328Y-37028
X32728Y-43143
X32728Y-47143
X32813Y-38343
X33828Y-50243
X34128Y-48543
X34228Y-42143
X34328Y-31643
X34328Y-32643
X34328Y-33643
X34328Y-34643
X34328Y-35643
X34328Y-36643
X34328Y-37643
X34328Y-38643
X34732Y-44047
X34732Y-45047
X34732Y-46047
X34732Y-47047
X34928Y-30043
X37328Y-31643
X37328Y-32643
X37328Y-33643
X37328Y-34643
X37328Y-35643
X37328Y-36643
X37328Y-37643
X37328Y-38643
X37528Y-40143
X37732Y-44047
X37732Y-45047
X37732Y-46047
X37732Y-47047
X37828Y-50243
X38128Y-48543
X38228Y-42143
X38824Y-31563
X38824Y-33531
X38828Y-34743
X38828Y-38743
X38928Y-30043
X39028Y-28443
X39607Y-43143
X39728Y-45143
X39728Y-49143
X40024Y-31563
X40024Y-33531
X40228Y-34743
X40228Y-38743
X40591Y-43143
X41128Y-46559
X41128Y-48528
X41424Y-35279
X41424Y-37247
X41428Y-29743
X41428Y-33743
X41528Y-40143
X41954Y-49843
X42128Y-47343
X42228Y-41543
X42228Y-45543
X42928Y-29743
X42928Y-33743
X42928Y-35143
X42928Y-39143
X42938Y-49843
X43028Y-28443
X44428Y-31043
X44428Y-35043
X44428Y-36459
X44428Y-38428
X45728Y-31275
X45728Y-33243
X45728Y-34459
X45728Y-36428
X46128Y-47343
T3
X27642Y-38158
X35798Y-28500
X36028Y-40143
X36798Y-28500
X39326Y-50343
X40326Y-50343
X45836Y-38158
T4
X28628Y-41443
X28628Y-43443
X28628Y-45443
X44928Y-41243
X44928Y-43243
X44928Y-45243
T5
X28357Y-29016
X28357Y-49724
X45128Y-29035
X45128Y-49743
T0
M30
