G04 #@! TF.GenerationSoftware,KiCad,Pcbnew,6.0.2+dfsg-1*
G04 #@! TF.CreationDate,2023-05-23T14:21:47-03:00*
G04 #@! TF.ProjectId,pedal,70656461-6c2e-46b6-9963-61645f706362,rev?*
G04 #@! TF.SameCoordinates,Original*
G04 #@! TF.FileFunction,Soldermask,Top*
G04 #@! TF.FilePolarity,Negative*
%FSLAX46Y46*%
G04 Gerber Fmt 4.6, Leading zero omitted, Abs format (unit mm)*
G04 Created by KiCad (PCBNEW 6.0.2+dfsg-1) date 2023-05-23 14:21:47*
%MOMM*%
%LPD*%
G01*
G04 APERTURE LIST*
%ADD10R,1.700000X1.700000*%
%ADD11C,1.600000*%
%ADD12O,1.600000X1.600000*%
%ADD13R,1.050000X1.500000*%
%ADD14O,1.050000X1.500000*%
%ADD15R,1.600000X1.600000*%
%ADD16O,1.700000X1.700000*%
%ADD17R,3.000000X3.000000*%
%ADD18C,3.000000*%
%ADD19C,3.600000*%
%ADD20C,6.400000*%
%ADD21R,2.400000X1.600000*%
%ADD22O,2.400000X1.600000*%
G04 APERTURE END LIST*
D10*
X116423314Y-96922311D03*
D11*
X105228000Y-75548000D03*
D12*
X105228000Y-85708000D03*
D11*
X102180000Y-98408000D03*
D12*
X102180000Y-88248000D03*
D11*
X112848000Y-89010000D03*
D12*
X112848000Y-78850000D03*
D11*
X100910000Y-124824000D03*
D12*
X100910000Y-114664000D03*
D11*
X96846000Y-123300000D03*
D12*
X86686000Y-123300000D03*
D11*
X98624000Y-98408000D03*
D12*
X98624000Y-88248000D03*
D13*
X81098000Y-73622000D03*
D14*
X82368000Y-73622000D03*
X83638000Y-73622000D03*
D11*
X74494000Y-97138000D03*
D12*
X74494000Y-86978000D03*
D11*
X101662000Y-80170000D03*
X101662000Y-85170000D03*
D15*
X100601552Y-109584000D03*
D11*
X103101552Y-109584000D03*
X70176000Y-100694000D03*
D12*
X80336000Y-100694000D03*
D11*
X116150000Y-84438000D03*
X116150000Y-79438000D03*
D10*
X90927000Y-72390000D03*
D16*
X93467000Y-72390000D03*
D11*
X107260000Y-115680000D03*
D12*
X107260000Y-105520000D03*
D10*
X70209688Y-96922311D03*
D11*
X112848000Y-92606000D03*
X112848000Y-97606000D03*
D17*
X114118000Y-114918000D03*
D18*
X114118000Y-109838000D03*
X114118000Y-104758000D03*
D11*
X116150000Y-92526000D03*
X116150000Y-87526000D03*
X85924000Y-127618000D03*
D12*
X96084000Y-127618000D03*
D19*
X72026000Y-73700000D03*
D20*
X72026000Y-73700000D03*
D11*
X78812000Y-94050000D03*
X78812000Y-89050000D03*
D19*
X114626000Y-73748000D03*
D20*
X114626000Y-73748000D03*
D11*
X69922000Y-120760000D03*
D12*
X80082000Y-120760000D03*
X109038000Y-85708000D03*
D11*
X109038000Y-75548000D03*
X80082000Y-83676000D03*
D12*
X69922000Y-83676000D03*
D21*
X88220000Y-111880000D03*
D22*
X88220000Y-114420000D03*
X88220000Y-116960000D03*
X88220000Y-119500000D03*
X95840000Y-119500000D03*
X95840000Y-116960000D03*
X95840000Y-114420000D03*
X95840000Y-111880000D03*
D11*
X88718000Y-76310000D03*
D12*
X98878000Y-76310000D03*
D11*
X99132000Y-72246000D03*
D12*
X109292000Y-72246000D03*
D17*
X72716000Y-115426000D03*
D18*
X72716000Y-110346000D03*
X72716000Y-105266000D03*
D21*
X87194000Y-80374000D03*
D22*
X87194000Y-82914000D03*
X87194000Y-85454000D03*
X87194000Y-87994000D03*
X87194000Y-90534000D03*
X87194000Y-93074000D03*
X87194000Y-95614000D03*
X87194000Y-98154000D03*
X94814000Y-98154000D03*
X94814000Y-95614000D03*
X94814000Y-93074000D03*
X94814000Y-90534000D03*
X94814000Y-87994000D03*
X94814000Y-85454000D03*
X94814000Y-82914000D03*
X94814000Y-80374000D03*
D15*
X106562888Y-126602000D03*
D11*
X109062888Y-126602000D03*
X86940000Y-107044000D03*
D12*
X97100000Y-107044000D03*
D11*
X83130000Y-109584000D03*
D12*
X83130000Y-119744000D03*
D11*
X109038000Y-99424000D03*
D12*
X109038000Y-89264000D03*
D11*
X78344000Y-97392000D03*
X83344000Y-97392000D03*
X107006000Y-120252000D03*
D12*
X117166000Y-120252000D03*
D11*
X78328888Y-79104000D03*
D15*
X75828888Y-79104000D03*
D11*
X104466000Y-118260000D03*
X104466000Y-123260000D03*
D15*
X77606888Y-126856000D03*
D11*
X80106888Y-126856000D03*
X105482000Y-101964000D03*
D12*
X95322000Y-101964000D03*
D11*
X105218000Y-89608000D03*
X105218000Y-94608000D03*
D19*
X72026000Y-126300000D03*
D20*
X72026000Y-126300000D03*
D10*
X99889000Y-127872000D03*
D16*
X102429000Y-127872000D03*
D11*
X82114000Y-94050000D03*
X82114000Y-89050000D03*
D10*
X91512000Y-101964000D03*
D11*
X98614000Y-80170000D03*
X98614000Y-85170000D03*
X69922000Y-91764000D03*
X69922000Y-86764000D03*
X79066000Y-117966000D03*
D12*
X79066000Y-107806000D03*
D19*
X114626000Y-126348000D03*
D20*
X114626000Y-126348000D03*
M02*
